<?xml version="1.0" encoding="utf-8"?>
<!-- Generator: Adobe Illustrator 21.0.2, SVG Export Plug-In . SVG Version: 6.00 Build 0)  -->
<svg version="1.1" id="Layer_1" xmlns="http://www.w3.org/2000/svg" xmlns:xlink="http://www.w3.org/1999/xlink" x="0px" y="0px"
	 viewBox="0 0 172.8 104.8" style="enable-background:new 0 0 172.8 104.8;" xml:space="preserve">
<style type="text/css">
	.st0{fill:#9BB9CB;}
	.st1{fill:#13232E;}
	.st2{fill:#FFFFFF;}
	.st3{fill:#AFBAC4;}
</style>
<g>
	<g>
		<path class="st0" d="M160,51L160,51l-0.2-1.8c-0.1-0.8-1.1-4.8-8.3-7.4c-0.4-3.1-2.1-9.1-8.9-15.5l-9.5-8.8l2.8,8.6
			c-7.2-3.6-17.1-6.9-29.2-9.9C72.1,7.2,45.6,5.8,44.5,5.8L33.2,5.2l6.4,4.6c-7.8,0-16.3,0.1-23.6,1.5l-6.5,1.3l32.1,30
			c0.1,0.1,14.4,14.6,17.3,30.2c0.3,2.6,0.4,5.1,0.4,7.5l-1.6,17.1l17.2-8.2l11.9-5.6c0.1-0.1,13.3-6.3,23.9-9.8
			c0.8,0,1.7,0,2.7-0.1c5.7,3.9,16.4,8.8,31.3,4.9c0,1.5-0.4,3.7-1.9,6.6l-2.7,5.3l5.9-0.4c0.7,0,16-1.3,21.3-17.9
			C170.1,63.2,167.4,55.6,160,51z"/>
		<path class="st0" d="M52.5,104.8l2.3-24.7c0-2.1-0.1-4.4-0.4-6.6c-2.7-14.1-15.9-27.6-16-27.7L0,9.8l15.1-2.9
			c3.5-0.7,7.2-1.1,11-1.3L18.3,0l26.3,1.3c1.1,0.1,28,1.4,63.2,10.5c7.8,1.9,14.8,4,20.7,6.2l-5.2-15.6l22.3,20.6
			c6.3,5.8,8.8,11.6,9.8,15.6c7.1,3.4,8.5,8.4,8.7,9.9l0,0c7.7,5.8,10.5,15,7.3,25.1c-6.2,19.6-24.5,21-25.3,21.1l-13.8,0.9
			l5.7-11.2c-12,1.1-21-2.9-26.1-6.1c-0.2,0-0.4,0-0.6,0c-10.2,3.4-22.6,9.3-22.8,9.4L52.5,104.8z M19,15.3l25.7,24
			c0.7,0.7,15.5,15.8,18.6,32.6l0,0.3c0.3,2.8,0.5,5.5,0.4,8.1l0,0.4L62.9,90l22-10.4c0.1-0.1,13.5-6.4,24.4-10l0.6-0.2l0.6,0
			c0.9,0,1.8,0,2.8-0.1l1.4,0l1.2,0.8c5.5,3.8,14.8,7.6,27.6,4.3l5.7-1.5l-0.1,5.9c0,2.1-0.5,4.3-1.5,6.6c3.8-0.8,12-3.9,15.3-14.5
			c1.5-4.9,1.9-11.6-5.3-16l-4.9-3.1l2.4-2.3c-0.4-0.7-1.7-2.2-5.2-3.5l-2.6-0.9l-0.3-2.7c-0.2-1.9-1.1-5.2-4.1-9l0.5,1.5l-9.6-4.7
			c-7-3.4-16.5-6.6-28.3-9.5c-27.1-7-49-9.3-57.5-10l5.3,3.8l-13.9,0C32.6,14.3,25.3,14.3,19,15.3z"/>
	</g>
	<path class="st1" d="M160,51L160,51l-0.2-1.8c-0.1-0.8-1.1-4.8-8.3-7.4c-0.4-3.1-2.1-9.1-8.9-15.5l-9.5-8.8l2.8,8.6
		c-7.2-3.6-17.1-6.9-29.2-9.9C72.1,7.2,45.6,5.8,44.5,5.8L33.2,5.2l6.4,4.6c-7.8,0-16.3,0.1-23.6,1.5l-6.5,1.3l32.1,30
		c0.1,0.1,14.4,14.6,17.3,30.2c0.3,2.6,0.4,5.1,0.4,7.5l-1.6,17.1l17.2-8.2l11.9-5.6c0.1-0.1,13.3-6.3,23.9-9.8c0.8,0,1.7,0,2.7-0.1
		c5.7,3.9,16.4,8.8,31.3,4.9c0,1.5-0.4,3.7-1.9,6.6l-2.7,5.3l5.9-0.4c0.7,0,16-1.3,21.3-17.9C170.1,63.2,167.4,55.6,160,51z"/>
	<g>
		<path class="st1" d="M111.4,67.8c0,0,13.2,14.6,36.3,6.5c19.1-6.7-8.7-7.5-9.6-7.5"/>
		<path class="st2" d="M147.1,73c0,0,11.4-3.9,10.9-14.2c-0.2-3.9-7.7-10-13.7-9.6c0,0,0.2-2-1.4-2.6c-1.7-0.6-6.4-1.5-12.7,0.4
			c-6.3,1.9-4.8,4.7-9.2,5.2c-4.4,0.5-12.5,1.8-20.1,2c-2,3.6,18.3,16.9,28.2,14.9c-1.1-1-2.9-1.2-6.1-3.8
			c-3.2-2.5-5.3-6.8-10.1-6.4c1.1-2.2,20.2-2.9,29.2,0.1c3.8,1.2,5.3,2.8,5.7,6.5C148.3,69.3,146.3,71.1,147.1,73L147.1,73z"/>
		<path d="M141.1,51.4c0,0-2.2-2.1-6.9-2.1C134.2,49.2,134.5,50.8,141.1,51.4L141.1,51.4z"/>
		<path class="st2" d="M115.1,46.3c-0.3,0.9-2.9,0.6-5-1.2c-1.3-1.1-1.7-2-1.9-2.6c0-0.1-0.1-0.4,0-0.5c0.1-0.1,0.4,0,0.5,0
			C110.5,42.7,115.6,44.4,115.1,46.3L115.1,46.3z"/>
		<path class="st1" d="M147.1,74.4c0,0,2.7,4.4-1.4,12.3c0,0,13.7-0.9,18.3-15.6c1.6-5.2,2.6-14.7-9.9-19.3l2.3-2.2
			c0,0-0.6-3.4-8.2-5.5c0,0,0-0.2,0-0.6c0,0,0.6-7-7.9-14.9l1.6,4.9c-2.6-2-11.1-8.1-36.1-14.2c-34.7-9-61.6-10.3-61.6-10.3l5.6,4.1
			c-10,0.2-23.1-0.6-33.4,1.4l27.4,25.6c2.1-0.2,3.5,1.5,3.5,1.5l29.5,37.2c2.9-0.7,6.6-2,12.2-3.5l-3.8,5.2c0,0,13.7-6.5,24.7-10.1
			c11.6-0.6,34.5,2,35.9,3.1"/>
		<path class="st2" d="M131,43.2c-0.5,1.2-1.7,1.9-3.1,1.7c-1.6-0.2-2.6-1.7-2.4-3.2c0.1-0.5,0.3-1,0.6-1.4c-1.5-0.6-3.2-1-5.2-1.2
			c0,0,3.7,3.5,4.9,8.8c0,0,3.9,0.2,5.9-4C131.8,43.9,131.5,43.6,131,43.2z"/>
		<path class="st0" d="M138.8,58c0.1,0.3-23-5.9-23-5.9s-2.9,13,9,18.2s19.7-1.8,19.7-1.8s-20.2-1-22.6-10.8c0,0,7,4.2,16,5.6
			c9,1.4,17.5,8.1,14.2,18.1c0,0,6.3-4,8.8-11.3c2.4-7.3-3.2-14.8-7.9-16.4l-7.7,1.2l5.7-4.9c0,0-6.8-7-15.9,1.2
			C135.1,51.1,137.9,53.9,138.8,58z"/>
		<path class="st3" d="M124.3,50.1c0,0-2.2-8.1-14.7-14c-11.8-5.6-23.2-4.8-23.2-4.8L124.3,50.1z"/>
		<path class="st1" d="M88.7,17.7"/>
		<path class="st1" d="M118.4,49.4L49.9,13.6c-0.4,0-11.3-0.7-24.2,0.1C40.3,26,63,50.2,62.6,80.4c5-0.1,10.2-0.6,15.6-1.8
			C118.8,69.6,120.6,50.6,118.4,49.4z"/>
		<path class="st1" d="M20.3,18l23.7,22.2c0,0,19.8,19.8,18.8,39.6l-0.1,0.5c0,0,29.1-7.5,29.3-7.6c0.3-0.1,6.3,0.2,6.5-8.8
			s1.8-15.1-4.7-19.8S70.1,28.5,70.1,28.5l-25-9.6c0,0-5.4-1.2-7.5-0.7s-0.5-0.1-2.4-0.1"/>
		<path class="st1" d="M132.9,33c-10.6-4.6-13.8-6.4-36.7-11.8c-23-5.4-41.3-7.7-41.3-7.7l5,4.8c0,0-13.8-1.1-29.1-0.3
			c12,11.2,26.7,28.6,30.8,49.9c8.6,0.1,18.1-1.1,28.3-4.5l-13,6l24.6-5.1l-9.3,0.6l20.5-9.4l-8.8-10.5l20.4,4.9
			c0,0-6.9-4.9-7.9-9.9c0,0-7.7-6.4-26.4-11.2c0,0,36.6,3.1,43.7,12.6c0,0,0.6-1.7-1.2-4c0,0,4.6,1.1,5.6,7.5c0,0,4.1-1.6,6.6-1.6
			C144.7,43.4,143.6,37.6,132.9,33z"/>
		<path class="st0" d="M132.9,33c-10.6-4.6-13.8-6.4-36.7-11.8c-23-5.4-41.3-7.7-41.3-7.7l5,4.8c0,0-13.8-1.1-29.1-0.3
			c12,11.2,36.7,27.7,40.8,49c8.6,0.1,8.2-0.2,18.3-3.5l-13,6l24.6-5.1l-9.3,0.6l20.5-9.4l-8.8-10.5l20.4,4.9c0,0-1.4-5-7.9-10
			c-0.1-0.1-0.5-0.4-1.2-0.9c-1.4-1-3.1-2-5-2.9c-4.3-2.2-10.9-5-20.2-7.4c0,0,36.6,3.1,43.7,12.6c0,0,0.6-1.7-1.2-4
			c0,0,4.6,1.1,5.6,7.5c0,0,4.1-1.6,6.6-1.6C144.7,43.4,143.6,37.6,132.9,33z"/>
		<path class="st2" d="M43.8,29.4c14.4,0.5,25.8,2.9,25.8,2.9c-5.4-4.9-22.3-6.9-31.4-7.6C40,26.2,41.9,27.7,43.8,29.4z"/>
		<path class="st2" d="M132.9,33c-10.6-4.6-13.8-6.4-36.7-11.8c-6.9-1.6-13.4-3-19.2-4c-0.7-0.1-1.3-0.2-2-0.4
			c-0.3-0.1-0.6-0.1-0.8-0.2c-2.1-0.4-4.1-0.7-6-1.1c-0.1,0-0.2,0-0.3-0.1c-0.6-0.1-1.2-0.2-1.8-0.3c-0.1,0-0.1,0-0.2,0
			c-1.8-0.3-3.4-0.5-4.8-0.8c-0.1,0-0.2,0-0.3,0c-1.3-0.2-2.4-0.4-3.3-0.5c-0.1,0-0.3,0-0.4-0.1c-0.2,0-0.5-0.1-0.7-0.1
			c-0.3,0-0.5-0.1-0.7-0.1c-0.1,0-0.2,0-0.3,0c-0.1,0-0.2,0-0.3,0c-0.1,0-0.1,0-0.2,0c-0.1,0-0.1,0-0.1,0l5,4.8
			c0,0-13.8-1.1-29.1-0.3c2,1.9,4.4,3.9,6.9,6.1c19.6-0.3,37.6,1.9,52.5,4.8c2.5,0.2,36.7,3.4,43.6,12.5c0,0,0.6-1.7-1.2-4
			c0,0,4.6,1.1,5.6,7.5c0,0,4.1-1.6,6.6-1.6C144.7,43.4,143.6,37.6,132.9,33z"/>
	</g>
</g>
</svg>
