<?xml version="1.0" encoding="utf-8"?>
<!-- Generator: Adobe Illustrator 21.0.2, SVG Export Plug-In . SVG Version: 6.00 Build 0)  -->
<svg version="1.1" id="Layer_1" xmlns="http://www.w3.org/2000/svg" xmlns:xlink="http://www.w3.org/1999/xlink" x="0px" y="0px"
	 viewBox="0 0 136 122.6" style="enable-background:new 0 0 136 122.6;" xml:space="preserve">
<style type="text/css">
	.st0{fill:#13232E;}
	.st1{fill:#FFFFFF;stroke:#9BB9CB;stroke-width:7;stroke-miterlimit:10;}
	.st2{fill:#FFFFFF;}
	.st3{fill:#9BB9CB;}
	.st4{fill:#AFBAC4;}
</style>
<g>
	<g>
		<path class="st0" d="M70.4,39.1l-3,9.2l39.5-0.2l-8.1,24.6l-39.5,0.2l-3.2,9.7l40.3-0.2l-9.1,27.7l-70.8,0.4l32.1-98.1l70.7-0.4
			l-8.8,26.8L70.4,39.1z"/>
		<path class="st0" d="M96.1,122.1L0,122.6L40,0.5L136,0l-16.7,50.9l-0.7,0l-6.4,19.5l0.8,0L96.1,122.1z M33.2,98.4l45.5-0.2
			l1.2-3.7l-40.3,0.2l11.1-33.8l39.5-0.2l0.2-0.5l-39.5,0.2l10.9-33.2l40.2-0.2l0.9-2.8l-45.4,0.2L33.2,98.4z"/>
	</g>
	<g>
		<path class="st0" d="M70.4,39.1l-3,9.2l39.5-0.2l-8.1,24.6l-39.5,0.2l-3.2,9.7l40.3-0.2l-9.1,27.7l-70.8,0.4l32.1-98.1l70.7-0.4
			l-8.8,26.8L70.4,39.1z"/>
		<path class="st0" d="M96.1,122.1L0,122.6L40,0.5L136,0l-16.7,50.9l-0.7,0l-6.4,19.5l0.8,0L96.1,122.1z M33.2,98.4l45.5-0.2
			l1.2-3.7l-40.3,0.2l11.1-33.8l39.5-0.2l0.2-0.5l-39.5,0.2l10.9-33.2l40.2-0.2l0.9-2.8l-45.4,0.2L33.2,98.4z"/>
	</g>
	<path class="st0" d="M97.2,41.9c0,0,20.1-10.6,17.8-0.4s0.7,7,0.7,7l-4,6.4l-7.3,0.4l-1.5,0"/>
	<path class="st1" d="M74.1,26.7l-6.8,21.6l39.5-0.2l-8.1,24.6l-39.5,0.2l-6.8,19.9l40.3-0.2l-5.5,17.6l-70.8,0.4l32.1-98.1
		l70.7-0.4l-5.1,14.4L74.1,26.7z"/>
	<path class="st0" d="M108.7,39.8c-1.2,1-8.6,4.7-7,7.2c1.7,2.5,6.5,5.6,6.5,5.6l4.3-1.2l3.2-3l0-3.5"/>
	<path class="st2" d="M74.1,26.7l-6.8,21.6l39.5-0.2l-8.1,24.6l-39.5,0.2l-6.8,19.9l40.3-0.2l-5.5,17.6l-70.8,0.4l32.1-98.1
		l70.7-0.4l-5.1,14.4L74.1,26.7z"/>
	<g>
		<g>
			<path class="st3" d="M116.5,61L116.5,61l-0.1-1.1c-0.1-0.5-0.7-2.9-4.9-4.4c-0.2-1.9-1.2-5.5-5.3-9.3l-5.7-5.3l1.7,5.1
				c-4.3-2.1-10.2-4.1-17.5-5.9C63.9,34.8,48,34,47.3,33.9l-6.8-0.3l3.8,2.8c-4.7,0-9.8,0-14.1,0.9L26.4,38l19.2,18
				c0.1,0.1,8.6,8.7,10.3,18.1c0.2,1.5,0.3,3,0.2,4.5l-1,10.2l10.3-4.9l7.1-3.4c0.1,0,8-3.8,14.3-5.9c0.5,0,1,0,1.6,0
				c3.4,2.3,9.8,5.2,18.7,2.9c0,0.9-0.3,2.2-1.1,3.9l-1.6,3.2l3.5-0.2c0.4,0,9.6-0.8,12.7-10.7C122.5,68.3,120.9,63.7,116.5,61z"/>
			<path class="st3" d="M52.1,93.2l1.4-14.8c0-1.3-0.1-2.6-0.2-4C51.7,66,43.8,58,43.7,57.9l-23-21.5l9-1.8c2.1-0.4,4.3-0.6,6.6-0.8
				l-4.6-3.4l15.8,0.8c0.7,0,16.7,0.9,37.8,6.3c4.7,1.1,8.8,2.4,12.4,3.7l-3.1-9.4l13.3,12.3c3.8,3.5,5.3,7,5.9,9.3
				c4.3,2.1,5.1,5,5.2,5.9l0,0c4.6,3.5,6.3,9,4.4,15c-3.7,11.7-14.6,12.6-15.1,12.6l-8.2,0.6l3.4-6.7c-7.2,0.7-12.6-1.7-15.6-3.7
				c-0.1,0-0.2,0-0.3,0c-6.1,2.1-13.5,5.6-13.6,5.6L52.1,93.2z M32.1,39.7L47.4,54c0.4,0.4,9.3,9.4,11.2,19.5l0,0.2
				c0.2,1.6,0.3,3.3,0.3,4.9l0,0.2l-0.5,5.5l13.2-6.2c0.1,0,8.1-3.8,14.6-6l0.4-0.1l0.4,0c0.5,0,1.1,0,1.7,0l0.8,0l0.7,0.5
				c3.3,2.3,8.8,4.5,16.5,2.6l3.4-0.9l-0.1,3.5c0,1.2-0.3,2.6-0.9,3.9c2.3-0.5,7.2-2.3,9.2-8.7c0.9-2.9,1.1-6.9-3.2-9.6l-2.9-1.8
				l1.5-1.4c-0.3-0.4-1-1.3-3.1-2.1l-1.5-0.6l-0.2-1.6c-0.1-1.1-0.7-3.1-2.4-5.4l0.3,0.9l-5.7-2.8c-4.2-2.1-9.9-4-16.9-5.7
				c-16.2-4.2-29.3-5.6-34.4-6l3.2,2.3l-8.3,0C40.2,39,35.9,39.1,32.1,39.7z"/>
		</g>
		<path class="st0" d="M116.5,61L116.5,61l-0.1-1.1c-0.1-0.5-0.7-2.9-4.9-4.4c-0.2-1.9-1.2-5.5-5.3-9.3l-5.7-5.3l1.7,5.1
			c-4.3-2.1-10.2-4.1-17.5-5.9C63.9,34.8,48,34,47.3,33.9l-6.8-0.3l3.8,2.8c-4.7,0-9.8,0-14.1,0.9L26.4,38l19.2,18
			c0.1,0.1,8.6,8.7,10.3,18.1c0.2,1.5,0.3,3,0.2,4.5l-1,10.2l10.3-4.9l7.1-3.4c0.1,0,8-3.8,14.3-5.9c0.5,0,1,0,1.6,0
			c3.4,2.3,9.8,5.2,18.7,2.9c0,0.9-0.3,2.2-1.1,3.9l-1.6,3.2l3.5-0.2c0.4,0,9.6-0.8,12.7-10.7C122.5,68.3,120.9,63.7,116.5,61z"/>
		<g>
			<path class="st0" d="M87.4,71c0,0,7.9,8.7,21.7,3.9c11.4-4-5.2-4.5-5.7-4.5"/>
			<path class="st2" d="M108.8,74.2c0,0,6.8-2.3,6.6-8.5c-0.1-2.3-4.6-6-8.2-5.7c0,0,0.1-1.2-0.8-1.6c-1-0.4-3.8-0.9-7.6,0.3
				c-3.8,1.2-2.9,2.8-5.5,3.1s-7.5,1.1-12,1.2c-1.2,2.1,10.9,10.1,16.9,8.9c-0.7-0.6-1.8-0.7-3.7-2.3c-1.9-1.5-3.2-4.1-6.1-3.8
				c0.7-1.3,12.1-1.7,17.5,0.1c2.3,0.7,3.2,1.7,3.4,3.9C109.5,72,108.3,73.1,108.8,74.2L108.8,74.2z"/>
			<path d="M105.2,61.2c0,0-1.3-1.3-4.1-1.3C101.1,60,101.2,60.9,105.2,61.2L105.2,61.2z"/>
			<path class="st2" d="M89.6,58.2c-0.2,0.6-1.8,0.4-3-0.7c-0.7-0.6-1-1.2-1.1-1.6c0-0.1-0.1-0.2,0-0.3c0.1,0,0.2,0,0.3,0
				C86.8,56,89.9,57.1,89.6,58.2L89.6,58.2z"/>
			<path class="st0" d="M108.7,75c0,0,1.6,2.6-0.8,7.4c0,0,8.2-0.5,10.9-9.3c1-3.1,1.5-8.8-5.9-11.5l1.4-1.3c0,0-0.3-2-4.9-3.3
				c0,0,0-0.1,0-0.4c0,0,0.4-4.2-4.8-8.9l1,2.9c-1.5-1.2-6.6-4.8-21.6-8.5C63.3,36.7,47.2,36,47.2,36l3.4,2.4
				c-6,0.1-13.8-0.3-20,0.9L47,54.6c1.2-0.1,2.1,0.9,2.1,0.9l17.7,22.3c1.7-0.4,4-1.2,7.3-2.1l-2.3,3.1c0,0,8.2-3.9,14.8-6
				c6.9-0.3,20.7,1.2,21.5,1.8"/>
			<path class="st2" d="M99.1,56.3c-0.3,0.7-1,1.2-1.8,1c-0.9-0.1-1.6-1-1.4-1.9c0-0.3,0.2-0.6,0.4-0.8c-0.9-0.3-1.9-0.6-3.1-0.7
				c0,0,2.2,2.1,3,5.3c0,0,2.3,0.1,3.5-2.4C99.6,56.8,99.4,56.6,99.1,56.3z"/>
			<path class="st3" d="M103.8,65.2c0,0.2-13.7-3.6-13.7-3.6s-1.8,7.8,5.4,10.9c7.2,3.1,11.8-1.1,11.8-1.1S95.1,70.9,93.7,65
				c0,0,4.2,2.5,9.6,3.3c5.4,0.8,10.5,4.8,8.5,10.8c0,0,3.8-2.4,5.3-6.8c1.5-4.4-1.9-8.8-4.7-9.8l-4.6,0.7l3.4-2.9
				c0,0-4-4.2-9.5,0.7C101.6,61.1,103.2,62.8,103.8,65.2z"/>
			<path class="st4" d="M95.1,60.5c0,0-1.3-4.8-8.8-8.4c-7.1-3.4-13.9-2.9-13.9-2.9L95.1,60.5z"/>
			<path class="st0" d="M73.8,41.1"/>
			<path class="st0" d="M91.6,60.1l-41-21.5c-0.3,0-6.8-0.4-14.5,0c8.7,7.4,22.3,21.9,22.1,39.9c3,0,6.1-0.4,9.3-1.1
				C91.8,72.1,92.9,60.7,91.6,60.1z"/>
			<path class="st0" d="M32.9,41.3L47,54.6c0,0,11.8,11.8,11.2,23.7l-0.1,0.3c0,0,17.4-4.5,17.6-4.6s3.8,0.1,3.9-5.3s1.1-9-2.8-11.8
				c-3.9-2.8-14.2-9.4-14.2-9.4l-14.9-5.7c0,0-3.2-0.7-4.5-0.4c-1.2,0.3-0.3-0.1-1.5,0"/>
			<path class="st0" d="M100.3,50.3c-6.4-2.7-8.2-3.8-22-7c-13.7-3.2-24.7-4.6-24.7-4.6l3,2.9c0,0-8.3-0.6-17.4-0.2
				c7.2,6.7,16,17.1,18.4,29.9c5.1,0,10.9-0.7,17-2.7l-7.8,3.6l14.7-3l-5.6,0.4l12.2-5.6l-5.2-6.3l12.2,2.9c0,0-4.1-2.9-4.7-5.9
				c0,0-4.6-3.9-15.8-6.7c0,0,21.9,1.9,26.1,7.5c0,0,0.3-1-0.7-2.4c0,0,2.8,0.6,3.3,4.5c0,0,2.5-0.9,4-0.9
				C107.3,56.5,106.6,53,100.3,50.3z"/>
			<path class="st3" d="M100.3,50.3c-6.4-2.7-8.2-3.8-22-7c-13.7-3.2-24.7-4.6-24.7-4.6l3,2.9c0,0-8.3-0.6-17.4-0.2
				c7.2,6.7,21.9,16.6,24.4,29.3c5.1,0,4.9-0.1,11-2.1l-7.8,3.6l14.7-3l-5.6,0.4l12.2-5.6l-5.2-6.3l12.2,2.9c0,0-0.8-3-4.7-6
				c-0.1-0.1-0.3-0.3-0.7-0.5c-0.9-0.6-1.8-1.2-3-1.7c-2.6-1.3-6.5-3-12.1-4.4c0,0,21.9,1.9,26.1,7.5c0,0,0.3-1-0.7-2.4
				c0,0,2.8,0.6,3.3,4.5c0,0,2.5-0.9,4-0.9C107.3,56.5,106.6,53,100.3,50.3z"/>
			<path class="st2" d="M46.9,48.1c8.6,0.3,15.5,1.8,15.5,1.8c-3.2-2.9-13.3-4.1-18.8-4.6C44.7,46.2,45.8,47.1,46.9,48.1z"/>
			<path class="st2" d="M100.3,50.3c-6.4-2.7-8.2-3.8-22-7c-4.2-1-8-1.8-11.5-2.4c-0.4-0.1-0.8-0.1-1.2-0.2c-0.2,0-0.3-0.1-0.5-0.1
				c-1.3-0.2-2.5-0.4-3.6-0.6c-0.1,0-0.1,0-0.2,0c-0.4-0.1-0.7-0.1-1.1-0.2c0,0-0.1,0-0.1,0c-1.1-0.2-2-0.3-2.9-0.5
				c-0.1,0-0.1,0-0.2,0c-0.8-0.1-1.4-0.2-2-0.3c-0.1,0-0.2,0-0.2,0c-0.1,0-0.3,0-0.4-0.1c-0.2,0-0.3,0-0.4-0.1c-0.1,0-0.1,0-0.2,0
				c-0.1,0-0.1,0-0.2,0c0,0-0.1,0-0.1,0c0,0-0.1,0-0.1,0l3,2.9c0,0-8.3-0.6-17.4-0.2c1.2,1.1,2.6,2.3,4.2,3.6
				c11.7-0.2,22.5,1.1,31.4,2.9c1.5,0.1,22,2.1,26.1,7.5c0,0,0.3-1-0.7-2.4c0,0,2.8,0.6,3.3,4.5c0,0,2.5-0.9,4-0.9
				C107.3,56.5,106.6,53,100.3,50.3z"/>
		</g>
	</g>
</g>
</svg>
