<?xml version="1.0" encoding="utf-8"?>
<!-- Generator: Adobe Illustrator 21.0.2, SVG Export Plug-In . SVG Version: 6.00 Build 0)  -->
<svg version="1.1" id="Layer_1" xmlns="http://www.w3.org/2000/svg" xmlns:xlink="http://www.w3.org/1999/xlink" x="0px" y="0px"
	 viewBox="0 0 379.2 241" style="enable-background:new 0 0 379.2 241;" xml:space="preserve">
<style type="text/css">
	.st0{fill:#13232E;}
	.st1{fill:#9BB9CB;}
	.st2{fill:#B21E28;}
	.st3{fill:#FFFFFF;}
	.st4{clip-path:url(#SVGID_2_);fill:#CDD8E0;}
	.st5{fill:#CDD8E0;}
	.st6{fill:#AFBAC4;}
</style>
<g>
	<g>
		<path class="st0" d="M72.2,230.2l2.7,0l-1.7,4.4l8-4.5l3.8,0l-9.5,5l6.3,5.6l-4.3,0l-5-4.6l-1.8,4.7l-2.7,0L72.2,230.2z"/>
		<path class="st0" d="M82.4,240.9l-4.9,0l-4.8-4.5l-1.7,4.5l-3.2,0l4.2-11.1l3.2,0l-1.6,4.1l7.6-4.2l4.8,0l-10,5.3L82.4,240.9z
			 M77.7,240.5l3.6,0l-6.1-5.4l8.9-4.8l-2.8,0l-8.5,4.7l1.8-4.7l-2.2,0l-3.9,10.2l2.2,0l1.9-4.8L77.7,240.5z"/>
	</g>
	<g>
		<path class="st0" d="M92.3,234.1l5.1,0l-0.8,2.1l-5.1,0L92.3,234.1z"/>
		<path class="st0" d="M96.8,236.4l-5.6,0l1-2.6l5.6,0L96.8,236.4z M91.8,236l4.6,0l0.6-1.7l-4.6,0L91.8,236z"/>
	</g>
	<g>
		<path class="st0" d="M121.7,232l-0.4,1c-0.5,1.2-1.3,1.8-3,2.1c1.6,0.2,2.1,0.8,1.6,2.1l-0.4,1.1c-0.6,1.6-1.5,2.3-3.7,2.3l-7.3,0
			c-2.2,0-2.5-0.6-1.9-2.3l0.4-1.1c0.5-1.3,1.5-2,3.2-2.1c-1.5-0.3-1.9-0.8-1.4-2l0.4-1c0.6-1.7,1.5-2.1,3.4-2.1l7.1,0
			C121.8,229.9,122.3,230.3,121.7,232z M111.1,236c-0.9,0-1.2,0.2-1.5,1l-0.3,0.8c-0.3,0.8-0.2,0.9,0.7,0.9l5.8,0
			c0.9,0,1.2-0.2,1.4-1l0.3-0.8c0.3-0.8,0.2-1-0.7-1L111.1,236z M113,231.8c-0.9,0-1.2,0.2-1.5,1l-0.2,0.5c-0.3,0.8-0.2,1,0.7,1
			l5.3,0c0.9,0,1.2-0.2,1.5-1l0.2-0.5c0.3-0.8,0.2-1-0.7-1L113,231.8z"/>
		<path class="st0" d="M115.9,240.8l-7.3,0c-1.2,0-1.9-0.2-2.2-0.6c-0.3-0.4-0.3-1,0.1-1.9l0.4-1.1c0.4-1.1,1.2-1.8,2.4-2.1
			c-0.3-0.1-0.5-0.3-0.7-0.6c-0.2-0.4-0.2-0.9,0.1-1.5l0.4-1c0.7-1.9,1.7-2.2,3.6-2.2l7.1,0c1,0,1.8,0.1,2.1,0.6
			c0.3,0.4,0.2,0.9-0.1,1.8l-0.4,1c-0.4,1-1,1.6-2.1,2c0.4,0.1,0.6,0.3,0.8,0.6c0.2,0.4,0.2,0.9,0,1.6l-0.4,1.1
			C119.1,240.1,118.1,240.8,115.9,240.8z M112.8,230.2c-1.9,0-2.6,0.4-3.2,1.9l-0.4,1c-0.2,0.5-0.2,0.9-0.1,1.1
			c0.2,0.3,0.6,0.5,1.3,0.6l1.6,0.3l-1.6,0.2c-1.6,0.2-2.6,0.8-3,2l-0.4,1.1c-0.3,0.8-0.3,1.2-0.2,1.5c0.2,0.3,0.8,0.4,1.8,0.4
			l7.3,0c2,0,2.8-0.5,3.4-2.1l0.4-1.1c0.2-0.5,0.2-0.9,0-1.2c-0.2-0.3-0.7-0.5-1.5-0.6l-1.7-0.2l1.7-0.3c1.6-0.3,2.4-0.8,2.8-1.9
			l0.4-1c0.3-0.7,0.3-1.1,0.2-1.4c-0.2-0.3-0.7-0.4-1.7-0.4L112.8,230.2z M115.9,238.9l-5.8,0c-0.5,0-0.8,0-1-0.3
			c-0.2-0.2-0.1-0.6,0.1-1l0.3-0.8c0.3-0.9,0.7-1.1,1.7-1.1l5.8,0c0.5,0,0.8,0,1,0.3c0.2,0.2,0.1,0.6-0.1,1l-0.3,0.8
			C117.2,238.6,116.9,238.9,115.9,238.9z M111.1,236.2c-0.8,0-1,0.1-1.2,0.8l-0.3,0.8c-0.2,0.4-0.1,0.5-0.1,0.5c0,0,0.1,0.1,0.6,0.1
			l5.8,0c0.8,0,1-0.1,1.2-0.8l0.3-0.8c0.2-0.4,0.1-0.5,0.1-0.6c0,0-0.1-0.1-0.6-0.1L111.1,236.2z M117.4,234.4l-5.3,0
			c-0.5,0-0.8,0-1-0.3c-0.2-0.3-0.1-0.6,0.1-1l0.2-0.5c0.3-0.9,0.7-1.1,1.7-1.1l5.3,0c0.5,0,0.8,0,1,0.3c0.2,0.2,0.1,0.6-0.1,1
			l-0.2,0.5C118.7,234.2,118.3,234.4,117.4,234.4z M113,232c-0.8,0-1,0.2-1.3,0.8l-0.2,0.5c-0.2,0.4-0.1,0.5-0.1,0.5
			c0,0,0.1,0.1,0.6,0.1l5.3,0c0.8,0,1-0.1,1.2-0.8l0.2-0.5c0.2-0.4,0.1-0.5,0.1-0.6c0,0-0.1-0.1-0.6-0.1L113,232z"/>
	</g>
	<g>
		<path class="st0" d="M153.4,231.6l-0.9,2.3l7.1,0c2.1,0,2.6,0.5,1.9,2.5l-0.6,1.5c-0.8,2-1.7,2.5-3.8,2.5l-7,0
			c-2.1,0-2.6-0.5-1.9-2.5l0.1-0.3l2.5-0.5l-0.5,1.3l8,0l0.9-2.4l-7.1,0c-2.1,0-2.6-0.5-1.9-2.5l0.4-1.2c0.8-2,1.6-2.5,3.8-2.5
			l6.5,0c2,0,2.6,0.5,1.9,2.3l-0.1,0.2l-2.5,0.5l0.5-1.2L153.4,231.6z"/>
		<path class="st0" d="M157.2,240.6l-7,0c-1.3,0-1.9-0.2-2.2-0.6c-0.3-0.4-0.3-1.1,0.2-2.2l0.2-0.4l3-0.6l-0.5,1.3l7.5,0l0.8-2
			l-6.8,0c-1.3,0-1.9-0.2-2.2-0.6c-0.3-0.4-0.3-1.1,0.2-2.2l0.4-1.2c0.8-2,1.7-2.7,4-2.7l6.5,0c1.3,0,1.9,0.2,2.2,0.6
			c0.3,0.4,0.3,1-0.1,2l-0.1,0.3l-3.1,0.6l0.5-1.3l-7,0l-0.7,1.8l6.8,0c1.3,0,1.9,0.2,2.3,0.6c0.3,0.4,0.3,1.1-0.2,2.2l-0.6,1.5
			C160.4,239.9,159.5,240.6,157.2,240.6z M148.5,237.8l-0.1,0.2c-0.3,0.9-0.4,1.5-0.2,1.7c0.2,0.3,0.8,0.4,1.9,0.4l7,0
			c2.1,0,2.9-0.5,3.6-2.4l0.6-1.5c0.3-0.9,0.4-1.4,0.2-1.7c-0.2-0.3-0.8-0.4-1.9-0.4l-7.4,0l1.1-2.7l7.9,0l-0.4,1.1l2-0.4l0-0.1
			c0.3-0.8,0.3-1.3,0.2-1.6c-0.2-0.3-0.8-0.5-1.9-0.4l-6.5,0c-2.1,0-2.9,0.5-3.6,2.4l-0.4,1.2c-0.3,0.9-0.4,1.5-0.2,1.8
			c0.2,0.3,0.8,0.4,1.9,0.4l7.4,0l-1.1,2.9l-8.5,0l0.5-1.2L148.5,237.8z"/>
	</g>
	<g>
		<path class="st0" d="M179,231.5l-2.6,6.7l7.1,0l0.9-2.3l2.4,0.5l-0.5,1.3c-0.8,2-1.6,2.5-3.8,2.5l-6.8,0c-2.1,0-2.6-0.5-1.9-2.5
			l2.1-5.6c0.8-2,1.6-2.5,3.8-2.5l6.8,0c2.1,0,2.6,0.5,1.9,2.5l-0.4,1l-2.8,0.4l0.8-2L179,231.5z"/>
		<path class="st0" d="M182.6,240.4l-6.8,0c-1.3,0-1.9-0.2-2.2-0.6c-0.3-0.4-0.3-1.1,0.2-2.2l2.1-5.6c0.8-2,1.7-2.7,4-2.7l6.8,0
			c1.3,0,1.9,0.2,2.2,0.6c0.3,0.4,0.3,1.1-0.2,2.2l-0.4,1.1l-3.3,0.5l0.8-2.1l-6.6,0l-2.4,6.3l6.6,0l0.9-2.3l2.9,0.6l-0.6,1.5
			C185.8,239.8,184.9,240.4,182.6,240.4z M179.9,229.9c-2.1,0-2.9,0.5-3.6,2.4l-2.1,5.6c-0.3,0.9-0.4,1.5-0.2,1.8
			c0.2,0.3,0.8,0.4,1.9,0.4l6.8,0c2.1,0,2.9-0.5,3.6-2.4l0.4-1l-2-0.4l-0.9,2.2l-7.6,0l2.8-7.2l7.6,0l-0.8,2l2.3-0.3l0.3-0.9
			c0.3-0.9,0.4-1.5,0.2-1.8c-0.2-0.3-0.8-0.4-1.9-0.4L179.9,229.9z"/>
	</g>
	<g>
		<path class="st0" d="M202.6,229.5l2.6,0l-1.6,4.1l8.3,0l1.6-4.1l2.7,0l-4.1,10.6l-2.7,0l1.8-4.6l-8.3,0l-1.8,4.6l-2.6,0
			L202.6,229.5z"/>
		<path class="st0" d="M212.3,240.3l-3.2,0l1.8-4.6l-7.8,0l-1.8,4.6l-3.1,0l4.2-11.1l3.1,0l-1.6,4.1l7.8,0l1.6-4.1l3.2,0
			L212.3,240.3z M209.8,239.8l2.2,0l3.9-10.2l-2.2,0l-1.6,4.1l-8.8,0l1.6-4.1l-2.2,0l-3.9,10.2l2.2,0l1.8-4.6l8.8,0L209.8,239.8z"/>
	</g>
	<g>
		<path class="st0" d="M232.3,229.4l8.4,0c2.1,0,2.6,0.5,1.9,2.5l-2.1,5.6c-0.8,2-1.6,2.5-3.8,2.5l-8.4,0c-2.1,0-2.6-0.5-1.9-2.5
			l2.1-5.6C229.3,229.9,230.2,229.4,232.3,229.4z M237.6,237.9l2.6-6.7l-8.7,0l-2.6,6.7L237.6,237.9z"/>
		<path class="st0" d="M236.6,240.2l-8.4,0c-1.3,0-1.9-0.2-2.2-0.6c-0.3-0.4-0.3-1.1,0.2-2.2l2.1-5.6c0.8-2,1.7-2.7,4-2.7l8.4,0
			c1.3,0,1.9,0.2,2.2,0.6c0.3,0.4,0.3,1.1-0.2,2.2l-2.1,5.6C239.9,239.5,238.9,240.2,236.6,240.2z M232.3,229.6
			c-2.1,0-2.9,0.5-3.6,2.4l-2.1,5.6c-0.3,0.9-0.4,1.5-0.2,1.8c0.2,0.3,0.8,0.4,1.9,0.4l8.4,0c2.1,0,2.9-0.5,3.6-2.4l2.1-5.6
			c0.3-0.9,0.4-1.5,0.2-1.8c-0.2-0.3-0.8-0.4-1.9-0.4L232.3,229.6z M237.7,238.2l-9.2,0l2.8-7.2l9.2,0L237.7,238.2z M229.2,237.8
			l8.2,0l2.4-6.3l-8.2,0L229.2,237.8z"/>
	</g>
	<g>
		<path class="st0" d="M259.4,229.2l8.4,0c2.1,0,2.6,0.5,1.9,2.5l-2.1,5.6c-0.8,2-1.6,2.5-3.8,2.5l-8.4,0c-2.1,0-2.6-0.5-1.9-2.5
			l2.1-5.6C256.4,229.8,257.3,229.2,259.4,229.2z M264.6,237.8l2.6-6.7l-8.7,0l-2.6,6.7L264.6,237.8z"/>
		<path class="st0" d="M263.7,240l-8.4,0c-1.3,0-1.9-0.2-2.2-0.6c-0.3-0.4-0.3-1.1,0.2-2.2l2.1-5.6c0.8-2,1.7-2.7,4-2.7l8.4,0
			c1.3,0,1.9,0.2,2.2,0.6c0.3,0.4,0.3,1.1-0.2,2.2l-2.1,5.6C266.9,239.4,266,240,263.7,240z M259.4,229.5c-2.1,0-2.9,0.5-3.6,2.4
			l-2.1,5.6c-0.3,0.9-0.4,1.5-0.2,1.8c0.2,0.3,0.8,0.4,1.9,0.4l8.4,0c2.1,0,2.9-0.5,3.6-2.4l2.1-5.6c0.3-0.9,0.4-1.5,0.2-1.8
			c-0.2-0.3-0.8-0.4-1.9-0.4L259.4,229.5z M264.8,238l-9.2,0l2.8-7.2l9.2,0L264.8,238z M256.3,237.6l8.2,0l2.4-6.3l-8.2,0
			L256.3,237.6z"/>
	</g>
	<g>
		<path class="st0" d="M283.9,229.1l2.6,0l-3.3,8.6l8.5,0l-0.8,2l-11.2,0.1L283.9,229.1z"/>
		<path class="st0" d="M291.2,239.9l-11.7,0.1l4.2-11.1l3.1,0l-3.3,8.6l8.5,0L291.2,239.9z M280.2,239.5l10.7-0.1l0.6-1.5l-8.5,0
			l3.3-8.6l-2.2,0L280.2,239.5z"/>
	</g>
</g>
<g>
	<g>
		<path class="st1" d="M277.4,129.8l0-0.1c0-0.4-0.3-2.1-3.6-3.6c0-1.3-0.3-4.2-3.4-7.7l-2.8-3.2l0.8,3.5c-3.3-2.2-8.1-4.4-14.3-6.6
			c-1.2-0.4-2.4-0.9-3.6-1.3c7.9-3.1,18.1-8.1,26.4-16.5c3.3-3.4,4.9-6.9,4.7-10.6c-0.3-5.5-4.6-9-4.7-9.1l-2.5-2l0.7,3.1
			c1.5,6.6-2.1,10.2-4.6,11.8c1.4-6,0.9-11.1-1.7-15.1c-4.4-6.8-12.9-7.9-13.2-8l-3.3-0.4l2.4,2.3c3.4,3.3,5.1,6.7,5.1,10
			c0,2.6-1,4.6-1.9,5.9c-0.5-1.1-1.3-2.5-2.4-3.9c-2.8-3.7-6.1-5.5-9.5-5.1l-2.5,0.3l1.9,1.6c2.6,2.2,2.1,6.9,1.4,10
			c-0.7-1.2-1.8-2.7-3.3-4l-1.6-1.4l-0.2,2.1c-0.2,1.9-2.2,3.8-4.1,5.2c0-0.2,0-0.3,0-0.4l-0.1-2.6l-1.8,1.8
			c-5.3,5.3-26.6,10.1-36.9,9.3c-11.8-7.8-38.3-27.2-46.2-34.4c-8.4-7.7-11.2-15.2-12.1-20.1c-1-5.4,0.1-9,0.1-9l1.1-3.7l-2.9,2.5
			c-0.3,0.2-6.8,6.1-7.3,16.1c-0.2,4.8,0.7,8.9,1.7,11.7c-4.3-3.8-11.3-10.1-15.9-14.7c-6.7-6.8-6.1-17.3-6-17.4l0.2-3.4l-2.2,2.6
			c-0.3,0.3-2.9,3.7-2.6,15c0.2,8.1,8,18.5,12.9,24.2c-5.6-2.9-15.3-8.2-25-15.7c-8.5-6.4-12.1-12.9-13.6-17.3
			c-1.7-4.7-1.4-7.9-1.4-7.9l0.6-5.4l-2.7,4.7c-0.1,0.2-3,5.4-2.9,11.4c0.2,12,12.3,24.1,26.2,35.6c-12.5-4.9-29.1-9.9-29.3-10
			L69,59.3l1.4,2.4C73,66.1,86,74.7,98.5,82.9c3.6,2.3,7,4.6,10.1,6.7c-7-2.3-15.1-4.4-15.6-4.5l-2-0.5l0.6,1.9c0.3,0.8,1,3,16,14.3
			c4.1,3.1,8.2,6,10.9,8c-1.5-0.1-2.7,0-2.8,0l-2.1,0.1l1.2,1.7c3.6,4.9,11.5,9.1,15.8,11.1c-0.3,0.1-0.5,0.1-0.5,0.2l-1.9,0.6
			l1.5,1.3c0.9,0.7,1.9,1.4,3.1,2.1c-8.4-0.3-21.4-1.7-36.7-6.1l-1.3-0.4l-0.1,1.3c0,0.2-0.5,5.6,3.7,10c1.8,1.9,4.1,3.2,7,4.1
			l-17.9,1.7l0.9,1.5c0.2,0.3,4.5,6.8,19.7,6.9l-4.8,1.3l2,1.4c0.3,0.2,4.7,3,11.9,3l-2.6,1.1l1.8,1.1c0.3,0.2,7.5,4.6,18-1.8
			c3.6-2.2,7.7-3.8,12-4.8c0.5-0.1,1-0.2,1.5-0.3c6.5-1.3,9.9,0,15.6,2c5.4,1.9,12.7,4.6,26,6.1c8.3,1,15.8,0.8,22.5-0.3l0.2,0
			c0.7,0,9.8,0.6,16.5,1.1c-0.4,2-0.9,5.8,0.9,8.2c2.3,3,7.1,3.5,7.8,3.5c3.5,0.6,6.2,0.1,8.1-0.7c-0.6,0.6-1.1,1.2-1.4,1.5l-2.1,2
			l2.9-0.1c3.3-0.1,5.8-0.9,7.5-1.7c-0.7,1.3-1.4,1.9-1.4,1.9l-2.9,2.6l3.8-0.7c0.2,0,0.5-0.1,0.7-0.1l-2,0.9l4.8,0
			c0.2,0,0.3,0,0.5,0c3.5-0.1,6.4-1.1,8.7-2.9c0.8-0.6,1.7-1.6,2.6-2.9c1.5-2.2,1.9-4.2,1.9-5.5c0.2-1.1,0.2-2,0.1-2.6
			c-0.3-1-1.5-2.7-3.4-5.2c-0.6-0.8-1.2-1.6-1.6-2.1c-1.3-1.9-3.4-2.4-4.4-2.5c-1.3-1.5-3.2-1.6-4.2-1.6c-1.4-1.8-5.1-1.9-6-1.9
			l-17-0.4l5.2-3.5c0.6-0.1,1.4-0.3,2.2-0.4l-2.7,3.1l4-1.5c0.1,0,6.7-2.4,11.9-3.6c0.5,0,1,0.1,1.5,0.1c2.1,1.8,5.9,4.1,11.4,4
			c1.1,0,2.2-0.1,3.5-0.4c0,0.8-0.2,2.1-1.3,3.9l-1,1.6l1.9,0.1c0.3,0,7.3,0.1,10.4-7.2c1.9-4.6,0.1-7.5-1.3-8.9
			C278.3,131.1,277.9,130.4,277.4,129.8z M242.5,159.7c-0.2-1-0.8-2-1.3-2.6c0.4-0.4,1-0.9,1.7-1.5c0.6-0.5,1-0.6,1.1-0.6l3.4,1.5
			c-0.3,2,0.8,3.6,1.8,4.4c-0.1,0.3-0.3,0.7-0.5,1l-0.5,0.1C246.8,162.2,244.1,160.8,242.5,159.7z"/>
		<path class="st1" d="M281,128.2c-0.4-1.3-1.3-3-3.6-4.5c-0.4-2.1-1.5-4.9-4.2-7.9l-7.3-8.2c5.3-3.1,9.8-6.6,13.7-10.6
			c4.1-4.2,6.1-8.7,5.8-13.5c-0.4-7-5.6-11.4-6.2-11.9l-11.2-9.1l1,4.3c-5.3-5.1-12.2-6.1-13.1-6.2l-14.7-1.8L252,69.1
			c0.9,0.9,1.7,1.8,2.3,2.6c-2.7-1.9-5.7-2.7-8.7-2.3l-11.1,1.4l4.1,3.5l-0.3,3.6l-5.2,5.2c-1.4,1.4-6.1,3.8-14.7,5.9
			c-6.6,1.6-13.6,2.5-18.1,2.3c-12-8-37.3-26.6-44.8-33.5c-7.6-6.9-10.1-13.6-10.9-18c-0.7-4.2-0.1-7,0-7.3l4.9-16.4l-12.9,11.3
			c-0.8,0.7-8.1,7.4-8.6,18.8c0,0.6,0,1.1,0,1.7c-2.7-2.5-5.4-5-7.6-7.2c-5.3-5.4-5-14.1-4.9-14.5l1.1-15.1l-9.8,11.5
			c-1.1,1.3-3.8,5.8-3.5,17.6c0.1,3.9,1.5,8,3.7,12.1c-3.1-2-6.3-4.2-9.6-6.7c-7.7-5.9-11-11.7-12.4-15.5c-1.3-3.5-1.2-6-1.1-6.2
			L86.4,0l-12,21.2c-0.4,0.6-3.6,6.5-3.4,13.4c0.2,8.9,5.7,17.5,13.4,25.6c-6.5-2.2-11.5-3.7-11.6-3.7l-12.2-3.7l6.5,10.9
			c2.2,3.7,8.7,8.7,19.1,15.7l-1.2-0.3l2.9,8.7c0.6,1.7,1.4,4.2,17.3,16.1c0.6,0.5,1.2,0.9,1.9,1.4l-0.8,0l5.5,7.5
			c2.2,3,5.5,5.6,9.1,7.9l-0.5,0.2l0.1,0.1c-6.7-0.9-14.6-2.4-23.3-4.8l-5.7-1.6l-0.6,5.9c-0.1,0.7-0.5,6.4,3.5,11.7l-13.5,1.3
			l4.2,6.8c0.4,0.6,2,2.8,5.6,4.9c2.4,1.3,5.1,2.3,8.2,2.9l4.3,2.9c0.4,0.3,3.1,2,7.5,2.9l3.7,2.3c1,0.6,9.7,5.8,22.1-1.7
			c3.2-1.9,6.8-3.4,10.7-4.3c0.5-0.1,1-0.2,1.6-0.3c5.4-1.1,8-0.2,13.6,1.9c5.5,2,13.1,4.7,26.9,6.3c8.5,1,16.3,0.9,23.2-0.3
			c1.1,0,5.8,0.4,12.1,0.8c0,2.4,0.5,4.9,2.1,7c2.6,3.3,4.9,3.6,8.3,4.8l-3.1,2.3l6.3-0.2l-4.4,2.4l4.1,0.4l-1.9,1.6l12.2-0.5l7.5,0
			c0.2,0,0.4,0,0.6,0c4.4-0.1,8-1.4,11-3.8c1.1-0.9,2.2-2.1,3.4-3.7c0.5-0.7,0.9-1.4,1.2-2.1l1.2-3.7c0.1-0.6,0.2-1.1,0.2-1.6
			c0.2-1.1,0.2-2.6-0.1-3.8c-0.4-1.6-1.5-3.2-3.3-5.7c0,0,0,0,0,0c3.8-0.1,10.4-2.1,13.6-9.6c2-4.6,1.4-9.2-1.6-12.6
			C281.6,129.1,281.3,128.6,281,128.2z M265.6,160.3l0,0.2l0,0.2c0,0.8-0.2,2-1.2,3.4c-0.2,0.3-0.4,0.5-0.5,0.7l-6,1.3l4-7.1
			l-8.4,3.9l6-6.7l-6.7,2.7l-1.1-0.9c-0.4-0.3-0.5-0.7-0.5-1l0.3-2.8l-6.9-3.1l-1,0.1c-1.1,0.1-2.1,0.6-3.2,1.4
			c-0.7,0.5-1.3,1.1-1.9,1.6l-2.6,2.3l2.1,2.8c0.4,0.6,0.6,1,0.6,1.1l0.3,1.5l1.3,0.9c0.1,0,0.1,0.1,0.2,0.1c-0.7,0-1.4-0.1-2.2-0.2
			l-0.2,0l-0.2,0c-1.4-0.1-4-0.8-5-2.1c-0.5-0.6-0.7-2.4-0.2-5l0.9-4.3l-4.4-0.3c-0.1,0-0.3,0-0.4,0l6.9-2.5l14.1,0.3l0.1,0
			c1.4,0,2.6,0.3,3,0.5l1.1,1.5l2-0.1c0,0,0,0,0,0c0.6,0,1.1,0.1,1.2,0.3l1,1.1l1.4,0.2c0.3,0,1.3,0.2,1.8,0.9
			c0.5,0.7,1,1.4,1.7,2.3c0.8,1.1,2.3,3,2.7,3.8C265.7,159.5,265.7,159.8,265.6,160.3z M276.4,139.2c-0.7,1.6-1.6,2.7-2.6,3.4
			c0-0.2,0-0.3,0-0.4l-0.2-4.4l-4.4,0.8c-1,0.2-1.9,0.3-2.8,0.3c-4.3,0.1-7.2-1.6-8.9-3.1l-0.9-0.8l-1.2-0.1
			c-0.6-0.1-1.2-0.1-1.7-0.1l-0.5,0l-0.5,0.1c-0.9,0.2-1.9,0.4-2.8,0.7l0.9-1l-11.2,2.3c-0.8,0.2-1.5,0.3-2.1,0.4l-0.8,0.1
			l-15.9,10.8l7.6,0.2l-2.2,2.5c-6.4-0.5-13.1-0.9-13.8-0.9l-0.5,0l-0.3,0.1c-6.3,1.1-13.5,1.2-21.4,0.3c-12.9-1.5-20-4-25.2-5.9
			c-5.9-2.1-10.2-3.7-17.7-2.2c-0.5,0.1-0.9,0.2-1.3,0.2l-0.3,0.1c-4.1,0.9-7.9,2.3-11.4,4.2l-17,0c-0.3,0-0.5,0-0.8,0l20.7-5.5
			l-29-0.2c-4.9,0-8.4-0.8-10.8-1.6l27.8-2.6l-18.7-5.7c-2.2-0.7-4-1.7-5.4-3.1c-1.1-1.1-1.7-2.4-2.1-3.5c14,3.7,25.9,4.8,33.7,5.1
			l15.6,0.6l-11.3-6.5l4.4-1.3l-9.1-4.3c-3.7-1.7-6.8-3.5-9.4-5.3l8.3,0.3l-10.6-7.5c-2.7-1.9-6.8-4.9-10.9-7.9
			c-3.3-2.4-5.8-4.4-7.8-6c1.7,0.5,3.5,1.1,5.2,1.6l25.8,8.4l-22.4-15.3c-3.1-2.1-6.5-4.4-10.1-6.7c-5.6-3.7-12.2-8.1-17.6-11.9
			c5.2,1.7,11.2,3.8,16.5,5.9l22,8.6l-18.2-15.2C91.9,57.5,80,46.3,78.8,35.9C81,40.5,85,46.3,92.5,52c9.8,7.4,19.3,12.8,25.6,16
			l17.4,8.9L122.7,62c-7.3-8.5-11.7-16.2-12-21.3c1,1.9,2.3,3.8,4,5.5c4.5,4.6,11.3,10.6,16.1,14.9l11.1,9.8L137,57
			c-1.2-3.3-1.7-6.7-1.5-10.3c0.1-2.3,0.6-4.3,1.2-6c0,0.2,0.1,0.4,0.1,0.6c1,5.5,4.1,13.9,13.3,22.3c8.1,7.5,34.8,27,46.6,34.8
			l0.8,0.5l1,0.1c1.1,0.1,2.3,0.1,3.6,0.1c9.1-0.2,23.2-3,31.5-7.2l-0.1,3l6.4-4.7c1.4-1.1,2.6-2.1,3.5-3.2c0,0.1,0.1,0.1,0.1,0.2
			l4.9,8.6l2.2-9.6c0.6-2.7,0.8-5,0.6-6.8c0.5,0.5,0.9,1,1.3,1.5c0.9,1.2,1.6,2.5,2,3.3l3,5.9l3.7-5.5c1.1-1.7,2.5-4.5,2.5-8
			c0-1.6-0.3-3.2-0.9-4.8c1,0.8,2,1.8,2.7,3c2,3.1,2.4,7.1,1.2,12.1l-2.2,9.3l8-5.1c2.3-1.5,4-3.3,5.2-5.5c-0.3,2.1-1.5,4.2-3.6,6.4
			c-3.7,3.8-8.2,7.1-13.4,10.1l-0.2-0.2l0.1,0.3c-3.5,2-7.3,3.8-11.5,5.4l-9.8,3.9l10,3.4c1.2,0.4,2.4,0.8,3.6,1.2l0,0
			c5.8,2,10.4,4.1,13.4,6.1l3.4,2.3c0.3,0.9,0.4,1.5,0.4,1.8l-0.1,2.6l2.3,1c0.8,0.3,1.2,0.7,1.3,0.8l0.1,0.8l0.7,0.9
			c0.3,0.4,0.5,0.7,0.7,1.1l0.3,0.7l0.5,0.5C277.1,135.7,277.2,137.2,276.4,139.2z M262.7,111.3c-0.7-0.3-1.3-0.6-2-0.9
			c0.6-0.3,1.1-0.6,1.6-0.8L262.7,111.3z"/>
	</g>
	<path class="st0" d="M277.4,129.8l0-0.1c0-0.4-0.3-2.1-3.6-3.6c0-1.3-0.3-4.2-3.4-7.7l-2.8-3.2l0.8,3.5c-3.3-2.2-8.1-4.4-14.3-6.6
		c-1.2-0.4-2.4-0.9-3.6-1.3c7.9-3.1,18.1-8.1,26.4-16.5c3.3-3.4,4.9-6.9,4.7-10.6c-0.3-5.5-4.6-9-4.7-9.1l-2.5-2l0.7,3.1
		c1.5,6.6-2.1,10.2-4.6,11.8c1.4-6,0.9-11.1-1.7-15.1c-4.4-6.8-12.9-7.9-13.2-8l-3.3-0.4l2.4,2.3c3.4,3.3,5.1,6.7,5.1,10
		c0,2.6-1,4.6-1.9,5.9c-0.5-1.1-1.3-2.5-2.4-3.9c-2.8-3.7-6.1-5.5-9.5-5.1l-2.5,0.3l1.9,1.6c2.6,2.2,2.1,6.9,1.4,10
		c-0.7-1.2-1.8-2.7-3.3-4l-1.6-1.4l-0.2,2.1c-0.2,1.9-2.2,3.8-4.1,5.2c0-0.2,0-0.3,0-0.4l-0.1-2.6l-1.8,1.8
		c-5.3,5.3-26.6,10.1-36.9,9.3c-11.8-7.8-38.3-27.2-46.2-34.4c-8.4-7.7-11.2-15.2-12.1-20.1c-1-5.4,0.1-9,0.1-9l1.1-3.7l-2.9,2.5
		c-0.3,0.2-6.8,6.1-7.3,16.1c-0.2,4.8,0.7,8.9,1.7,11.7c-4.3-3.8-11.3-10.1-15.9-14.7c-6.7-6.8-6.1-17.3-6-17.4l0.2-3.4l-2.2,2.6
		c-0.3,0.3-2.9,3.7-2.6,15c0.2,8.1,8,18.5,12.9,24.2c-5.6-2.9-15.3-8.2-25-15.7c-8.5-6.4-12.1-12.9-13.6-17.3
		c-1.7-4.7-1.4-7.9-1.4-7.9l0.6-5.4l-2.7,4.7c-0.1,0.2-3,5.4-2.9,11.4c0.2,12,12.3,24.1,26.2,35.6c-12.5-4.9-29.1-9.9-29.3-10
		L69,59.3l1.4,2.4C73,66.1,86,74.7,98.5,82.9c3.6,2.3,7,4.6,10.1,6.7c-7-2.3-15.1-4.4-15.6-4.5l-2-0.5l0.6,1.9c0.3,0.8,1,3,16,14.3
		c4.1,3.1,8.2,6,10.9,8c-1.5-0.1-2.7,0-2.8,0l-2.1,0.1l1.2,1.7c3.6,4.9,11.5,9.1,15.8,11.1c-0.3,0.1-0.5,0.1-0.5,0.2l-1.9,0.6
		l1.5,1.3c0.9,0.7,1.9,1.4,3.1,2.1c-8.4-0.3-21.4-1.7-36.7-6.1l-1.3-0.4l-0.1,1.3c0,0.2-0.5,5.6,3.7,10c1.8,1.9,4.1,3.2,7,4.1
		l-17.9,1.7l0.9,1.5c0.2,0.3,4.5,6.8,19.7,6.9l-4.8,1.3l2,1.4c0.3,0.2,4.7,3,11.9,3l-2.6,1.1l1.8,1.1c0.3,0.2,7.5,4.6,18-1.8
		c3.6-2.2,7.7-3.8,12-4.8c0.5-0.1,1-0.2,1.5-0.3c6.5-1.3,9.9,0,15.6,2c5.4,1.9,12.7,4.6,26,6.1c8.3,1,15.8,0.8,22.5-0.3l0.2,0
		c0.7,0,9.8,0.6,16.5,1.1c-0.4,2-0.9,5.8,0.9,8.2c2.3,3,7.1,3.5,7.8,3.5c3.5,0.6,6.2,0.1,8.1-0.7c-0.6,0.6-1.1,1.2-1.4,1.5l-2.1,2
		l2.9-0.1c3.3-0.1,5.8-0.9,7.5-1.7c-0.7,1.3-1.4,1.9-1.4,1.9l-2.9,2.6l3.8-0.7c0.2,0,0.5-0.1,0.7-0.1l-2,0.9l4.8,0
		c0.2,0,0.3,0,0.5,0c3.5-0.1,6.4-1.1,8.7-2.9c0.8-0.6,1.7-1.6,2.6-2.9c1.5-2.2,1.9-4.2,1.9-5.5c0.2-1.1,0.2-2,0.1-2.6
		c-0.3-1-1.5-2.7-3.4-5.2c-0.6-0.8-1.2-1.6-1.6-2.1c-1.3-1.9-3.4-2.4-4.4-2.5c-1.3-1.5-3.2-1.6-4.2-1.6c-1.4-1.8-5.1-1.9-6-1.9
		l-17-0.4l5.2-3.5c0.6-0.1,1.4-0.3,2.2-0.4l-2.7,3.1l4-1.5c0.1,0,6.7-2.4,11.9-3.6c0.5,0,1,0.1,1.5,0.1c2.1,1.8,5.9,4.1,11.4,4
		c1.1,0,2.2-0.1,3.5-0.4c0,0.8-0.2,2.1-1.3,3.9l-1,1.6l1.9,0.1c0.3,0,7.3,0.1,10.4-7.2c1.9-4.6,0.1-7.5-1.3-8.9
		C278.3,131.1,277.9,130.4,277.4,129.8z M242.5,159.7c-0.2-1-0.8-2-1.3-2.6c0.4-0.4,1-0.9,1.7-1.5c0.6-0.5,1-0.6,1.1-0.6l3.4,1.5
		c-0.3,2,0.8,3.6,1.8,4.4c-0.1,0.3-0.3,0.7-0.5,1l-0.5,0.1C246.8,162.2,244.1,160.8,242.5,159.7z"/>
	<path class="st0" d="M226.7,145.5l23.2,0.5c0,0,4.8,0,5.3,2c0,0,2.9-0.5,4.3,1.5c0,0,2.7,0.1,4.1,2.1c1.4,2,4.4,5.7,4.8,7
		c0.3,1.3-0.5,12.6-12.6,12.5c0,0,4.1-2,4.7-4.9c-0.1,0-2.8,3.1-8.4,4.1c0,0,1.8-1.6,3.1-5.6c0,0-2.9,3.2-10,3.5
		c0,0,4.6-4.5,5.3-7.7c0,0-2.7-1.5-1.8-4.6l-4.2-1.9c0,0-0.7-0.5-2.3,0.7c-1.6,1.3-2.6,2.2-2.6,2.2s1.7,1.8,1.8,3.4
		c0,0,4.4,3.1,6.8,2.8c0,0-3.6,3.6-10.5,2.4c0,0-4.8-0.3-7-3.1c-2.2-2.8-0.4-8.5-0.4-8.5s-17-1.3-17.9-1.2"/>
	<path class="st0" d="M254.2,136.3c0,0,5.6,7.5,16.9,4.7c9.3-2.3-3.8-3.9-4.2-4"/>
	<path class="st0" d="M272,127.1c-8.3-7.5-26.7-12.8-30.4-14.2c11.7-3.9,24.6-9.2,34.5-19.3c9.9-10.1,0.1-18.1,0.1-18.1
		c2.4,10.7-7.4,14.1-7.4,14.1c6.8-21.6-13.3-24.1-13.3-24.1c10.8,10.5,2.3,18.8,2.3,18.8s-4.2-10.9-11.5-10c4.7,4,0.9,14.1,0.9,14.1
		s-0.7-3.4-4.2-6.5c-0.3,3.9-6.9,7.5-6.9,7.5c0.7-0.8,0.6-2.8,0.6-2.8c-5.7,5.8-28,10.5-38,9.6C187.1,88.7,160.1,69,152,61.5
		c-16.8-15.3-12.3-30.2-12.3-30.2s-6.5,5.7-6.9,15.3c-0.4,9.6,3.8,15.9,3.8,15.9s-12.7-11-19.9-18.2c-7.2-7.2-6.4-18.3-6.4-18.3
		s-2.6,3.1-2.4,14.3c0.2,11.2,16.5,27.7,16.5,27.7s-14.9-6.5-30.3-18.2C77.2,36.9,78.7,23.6,78.7,23.6s-2.9,5.1-2.8,10.8
		c0.3,13.5,16.8,27.7,31.6,39.6c-12.2-5.7-36.2-12.9-36.2-12.9c3.8,6.4,33,23.6,45,32.7c-5.4-2.9-23.7-7.7-23.7-7.7
		c1.5,4.3,30.1,24.2,30.1,24.2c-2.8-0.7-6.9-0.5-6.9-0.5c4.8,6.6,18.3,12.1,18.3,12.1c-0.9,0.1-3.6,0.9-3.6,0.9
		c4.9,4.1,13.8,6.3,13.8,6.3c-0.8,0.3-2,1.2-2,1.2s10.2,3.9,21.2,4.5c0,0.1-0.1,0.2-0.1,0.3c-10.6,4.3-33.5,4.9-38.9,5.9
		c1,1,5.4,4,6.9,4.2c0.2,0,0.3,0.1,0.5,0.1c2.8-3,8.7-6,20.6-7.2c26.9-2.7,26-2.8,25.8-2.8c0.6,0,15.6,0,20.5-0.1
		c5-0.1,23.3,4.8,23.3,4.8s-0.2,0.4-0.4,0.9l-68.2,1.7c43.1,13.4,60.2,6.9,67,2c-0.3,1.1-0.4,2.2-0.2,3c0.2,0.8,1.9,2.2,3.6,4.1
		c0.1-0.2,0.1-0.4,0.2-0.6c2.7-6.7,4.1-4.9,4.1-4.9l9.9-6.7c7-3.5,14.1-3.9,17-2.8c3.7,1.4,7.7,3.4,11.6,3.4
		c-1.5-1.6-3.3-4.5-2.9-6.3c2.3,0.1,5.3,1,6,2.6l7.9-1.4C278.5,131.6,275.3,128.5,272,127.1z"/>
	<path class="st2" d="M245.4,131.3c-3.2,0-9.6,0.1-14.1-1.4c3.9-1.9,14.3-2.2,14.3-2.2c-3.2-3.5-18-4.2-23-6.5
		c3.9,0.4,17.3,0.3,22.1,0.2c-1.6-1.2-8.7-3.4-8.7-3.4c6,0.4,11,1.6,14.8,3c-0.1,0.6-0.5,1.3-1.7,1.7c2.4,0.9,3.9,4.5,3.9,4.5
		c5-0.3,6.2,1.4,6.2,1.4c-7.1-1-14.1,0.6-14.1,0.6c3.7,0.5,7,5.7,7,5.7s-4.3-0.6-9.9,0.9c-0.1,0-0.2,0.1-0.4,0.1
		c-1.9-0.9-5,0.3-7.5-1.1C238.4,134.5,241.1,134,245.4,131.3L245.4,131.3z"/>
	<path class="st3" d="M270.8,140.3c0,0,5.6-1.3,5.8-6.2c0.1-1.8-3.2-5.1-6-5.2c0,0,0.2-0.9-0.6-1.3s-3-1-6-0.4
		c-3.1,0.6-2.5,2-4.6,2.1c-2.1,0-6,0.3-9.6,0.1c-1.1,1.6,7.9,8.8,12.7,8.3c-0.5-0.5-1.3-0.7-2.7-2.1c-1.4-1.3-2.2-3.5-4.5-3.5
		c0.6-1,9.7-0.5,13.8,1.3c1.7,0.8,2.4,1.6,2.4,3.3C271.6,138.7,270.6,139.4,270.8,140.3L270.8,140.3z"/>
	<path d="M269,129.8c0,0-0.9-1.1-3.2-1.3C265.8,128.5,265.9,129.3,269,129.8L269,129.8z"/>
	<path class="st3" d="M256.9,126.3c-0.2,0.4-1.4,0.1-2.3-0.8c-0.5-0.6-0.7-1-0.8-1.3c0-0.1,0-0.2,0-0.2c0.1,0,0.2,0,0.2,0
		C254.8,124.4,257.2,125.4,256.9,126.3L256.9,126.3z"/>
	<path class="st1" d="M236.9,112.4c0,0-3.5-1.1-4.8-1.2c14-4.2,45.2-13.9,45.7-27.9C279.2,86.3,277.3,99.1,236.9,112.4L236.9,112.4z
		"/>
	<path class="st1" d="M212.8,108.2c0,0-36.1-22.7-52.8-36.6c-16.7-13.9-20.3-22-22.6-30.2c-0.9,8.2,5.6,22,26.2,36.4
		C184.2,92.2,199,101.8,212.8,108.2L212.8,108.2z"/>
	<path class="st1" d="M151.2,77.1c0,0-28.7-20-39.6-35.2C113.7,48.3,125.5,65.8,151.2,77.1L151.2,77.1z"/>
	<path class="st1" d="M133.2,77.5c0,0-9.6-7-23.8-14.9C95.3,54.8,87.1,48,82.6,41.1c7.2,13.9,20.3,20.8,30.3,26.5
		C122.8,73.3,133.2,77.5,133.2,77.5L133.2,77.5z"/>
	<path class="st1" d="M262.6,70.3c0,0,8.1,11.1,0.4,20.2C270.1,86.1,269.1,74.7,262.6,70.3L262.6,70.3z"/>
	<path class="st3" d="M164.1,137.7c0,0-0.3,2.7,0.1,3.4c-5.1,0.9-22.5,1.8-32,1.8C140,141.2,154.5,140.4,164.1,137.7L164.1,137.7z"
		/>
	<path class="st1" d="M252,93c0,0,5.6-5.9-1.2-13C256.1,81.3,257.1,91.4,252,93L252,93z"/>
	<path class="st0" d="M270.8,141c0,0,1.1,2.2-1.2,5.8c0,0,6.5,0.2,9.4-6.6c1-2.4,1.9-6.8-3.8-9.6l1.2-0.9c0,0-0.1-1.6-3.6-3
		c0,0,0-0.1,0-0.3c0,0,0.6-3.3-3.1-7.4l0.5,2.4c-1.1-1.1-4.9-4.3-16.4-8.3c-16-5.8-28.7-7.6-28.7-7.6l2.8,2.9
		c-4.7-0.4-9.7-0.4-14.7,0.1l10.3,11.7c-1.9-0.4-4.6-0.6-4.6-0.6l18.5,20.3c1.4-0.2,3.2-0.6,5.9-1.1l-2,2.3c0,0,6.8-2.5,12.2-3.7
		c5.5,0.2,16.3,2.5,16.8,3"/>
	<path class="st3" d="M264.5,125.5c-0.3,0.5-0.9,0.8-1.5,0.7c-0.7-0.2-1.2-0.9-1-1.6c0.1-0.2,0.2-0.5,0.4-0.6
		c-0.7-0.3-1.5-0.6-2.4-0.8c0,0,1.6,1.8,2,4.4c0,0,1.8,0.3,3-1.6C264.9,125.9,264.8,125.8,264.5,125.5z"/>
	<g>
		<g>
			<defs>
				<path id="SVGID_1_" d="M230.3,108.5c0.7,0.8,2.2,2.9,2.2,2.9c-4.5-0.6-9.9-1-14.4-0.7c0,0,7.3,7.3,8.6,9.5
					c0,0,19.2,0.7,29.7,7.9c0,0,2.7-0.2,3.7-0.2c0,0-0.7-1.8-2.5-4c-2.8-2.4-9.9-5.5-11.7-6.8c3.3,0.6,9.3,2.5,13.6,3.8
					c2.9,1.2,4.8,2,6.5,4c0,0,0.2-0.4-0.5-1.8c0,0,1.9,0.4,2.4,3.7c0,0,1.1-0.3,3-0.5C268.8,118,235.9,109.8,230.3,108.5z"/>
			</defs>
			<clipPath id="SVGID_2_">
				<use xlink:href="#SVGID_1_"  style="overflow:visible;"/>
			</clipPath>
			<path class="st4" d="M237.2,114.2c0.3,0.1-2.7-3.2-2.7-3.2s27.3,7.4,32.7,10.7c0,0-3.4-2.3-6.4-3.5c0,0-5.5-2.3-8-3.1
				c0,0-11.6-4-15.9-5l-6.6-1.6c0,0,1.5,1.9,2.2,2.9c-6.2-1-12.9-0.9-14.4-0.7c0,0,1.9,1.9,2.7,2.7
				C224.1,113.1,231.6,113,237.2,114.2z"/>
		</g>
		<path class="st5" d="M225.8,124.3c0,0,15.7-0.8,26,3.8c-9.1-4.9-28.4-6.2-28.4-6.2L225.8,124.3z"/>
	</g>
	<path class="st1" d="M267.6,132.9c0,0.1-10.6-3.8-10.6-3.8s-2,6,3.5,9c5.4,3,9.4,0,9.4,0s-9.5-1.4-10.2-6.1c0,0,3.1,2.3,7.3,3.4
		c4.2,1,7.9,4.6,5.9,9.2c0,0,3.2-1.6,4.7-5c1.5-3.4-0.9-7.1-3-8.1l-3.7,0.2l2.9-2.1c0,0-2.9-3.6-7.6-0.1
		C266.1,129.5,267.3,130.9,267.6,132.9z"/>
	<path class="st6" d="M267.8,126.7c0,0,2-0.6,3.2-0.4c0,0-0.3-2.8-5.1-5.5c-4.8-2.6-6.2-3.6-16.9-7.2s-19.2-5.4-19.2-5.4l2.1,2.5
		c0,0-15.4-2.7-25.4-0.9c0,0,3.2,2.6,4.7,3c0,0-12.4-1.7-19.5-0.5c0,0,12.7,6.9,22.4,7.5c0,0-6.9-0.1-10.2-0.8c0,0,6.2,9.5,18.6,9.3
		c-0.1,0-9.6,0.2-9.6,0.2s13.1,9.1,31.1,5l-6.4,2.3l11.9-1.3l-4.4-0.1l10.1-3.6l-3.7-5.4l9.4,3.2c0,0-3.1-2.6-3.3-5
		c0,0-3.4-3.4-12-6.5c0,0,17.2,3.1,20.1,7.9c0,0,0.3-0.8-0.4-2C265.5,122.9,267.7,123.6,267.8,126.7z"/>
	<path class="st6" d="M267.8,126.7c0,0,2-0.6,3.2-0.4c0,0-0.3-2.8-5.1-5.5c-4.8-2.6-6.2-3.6-16.9-7.2s-19.2-5.4-19.2-5.4l2.1,2.5
		c0,0-15.4-2.7-25.4-0.9c0,0,3.2,2.6,4.7,3c0,0-12.4-1.7-19.5-0.5c0,0,12.7,6.9,22.4,7.5c0,0-6.9-0.1-10.2-0.8c0,0,6.2,9.5,18.6,9.3
		c-0.1,0-9.6,0.2-9.6,0.2s13.1,9.1,31.1,5l-6.4,2.3l11.9-1.3l-4.4-0.1l10.1-3.6l-3.7-5.4l9.4,3.2c0,0-3.1-2.6-3.3-5
		c0,0-3.4-3.4-12-6.5c0,0,17.2,3.1,20.1,7.9c0,0,0.3-0.8-0.4-2C265.5,122.9,267.7,123.6,267.8,126.7z"/>
	<path class="st6" d="M261,128.5c0,0-0.7-3.9-6.3-7.3c-5.4-3.2-10.8-3.3-10.8-3.3L261,128.5z"/>
	<path class="st1" d="M265.9,120.8c-4.8-2.6-6.2-3.6-16.9-7.2c-10.6-3.6-19.2-5.4-19.2-5.4l2.1,2.5c0,0-15.4-2.7-25.4-0.9
		c0,0,3.2,2.6,4.7,3c0,0-12.4-1.7-19.5-0.5c0,0,12.7,6.9,22.4,7.5c0,0-6.9-0.1-10.2-0.8c0,0,6,9.2,17.9,9.3c-2.1,0-9,0.2-9,0.2
		s13.1,9.1,31.1,5l-6.4,2.3l11.9-1.3l-4.4-0.1l10.1-3.6l-3.7-5.4l9.4,3.2c0,0-0.4-2.4-3.3-5.1c-0.1-0.1-0.2-0.2-0.5-0.5
		c-0.6-0.5-1.4-1.1-2.2-1.6c-1.9-1.2-4.9-2.8-9.2-4.4c0,0,17.2,3.1,20.1,7.9c0,0,0.3-0.8-0.4-2c0,0,2.1,0.7,2.3,3.8
		c0,0,2-0.6,3.2-0.4C271,126.2,270.7,123.4,265.9,120.8z"/>
	<path class="st3" d="M265.9,120.8c-4.8-2.6-6.2-3.6-16.9-7.2c-10.6-3.6-19.2-5.4-19.2-5.4l2.1,2.5c0,0-15.4-2.7-25.4-0.9
		c0,0,3.2,2.6,4.7,3c0,0-12.4-1.7-19.5-0.5c0,0,12.7,6.9,22.4,7.5c0,0-6.9-0.1-10.2-0.8c0,0,6,9.2,17.9,9.3c-2.1,0-9,0.2-9,0.2
		s12.7,8.8,30.3,5.1c0.1,0,0.2-0.1,0.2-0.1s1.9-2.2-5.7-1.6c-7.5,0.7-14.4-3.5-14.4-3.5s5.9-0.1,9.2-0.2c-8.4,0.2-17.1-6.2-17.1-6.2
		s10.4,0.2,7.4-2.6s-12.9-4.6-12.9-4.6c11.8-1.7,26,2.7,26,2.7c-3.2-3.5-17.3-5.4-17.3-5.4c10.3,0.6,19.6,2.6,27.1,4.8
		c1.2,0.2,17.2,3.3,20.1,7.9c0,0,0.3-0.8-0.4-2c0,0,2.1,0.7,2.3,3.8c0,0,2-0.6,3.2-0.4C271,126.2,270.7,123.4,265.9,120.8z"/>
	<path class="st0" d="M221.9,148.6l-39.7-4.4c0,0-4.9-13.4,3-14.3s7.9-0.8,7.9-0.8"/>
	<path class="st0" d="M225.2,153.3l-47.2-4l11.3-14.1c0,0,33,0.3,34.2,1"/>
	<g>
		<path class="st0" d="M266.4,160.1c0,0,0.5,2-1.4,4.6s-2.8,2.7-2.8,2.5c-0.1-0.2,1.3-3.9,1.1-5.6c-0.2-1.7,2-2.1,2-2.1L266.4,160.1
			L266.4,160.1z"/>
		<path class="st0" d="M262.2,169.2C262.2,169.2,262.2,169.2,262.2,169.2c-0.8-0.1-1.4-0.5-1.7-1.2c-0.3-0.7-0.2-1.1,0.2-2.3
			c0.3-0.9,0.9-3.1,0.8-3.9c-0.2-1.7,1-3.7,3.6-4.1c0.4-0.1,0.8,0,1.2,0.2l1,0.6c0.5,0.3,0.8,0.7,0.9,1.2c0.1,0.3,0.6,2.9-1.6,6.1
			C264.9,168.2,263.6,169.3,262.2,169.2z"/>
	</g>
	<g>
		<path class="st0" d="M261.6,158.9c0,0,0.5,2-1.4,4.6c-1.8,2.6-3.9,3.4-3.9,3.2c-0.1-0.2,2.4-4.6,2.2-6.3c-0.2-1.7,2-2.1,2-2.1
			L261.6,158.9L261.6,158.9z"/>
		<path class="st0" d="M256.3,168.6C256.2,168.6,256.2,168.6,256.3,168.6c-0.8-0.1-1.4-0.5-1.7-1.2c-0.4-0.8-0.1-1.4,0.5-2.6
			c1.1-2.3,1.6-3.8,1.6-4.3c-0.2-2.3,1.6-3.8,3.6-4.1c0.4-0.1,0.8,0,1.2,0.2l1,0.6c0.5,0.3,0.8,0.7,0.9,1.2c0.1,0.3,0.6,2.9-1.6,6.1
			C260.2,166.9,257.8,168.7,256.3,168.6z"/>
	</g>
	<path class="st3" d="M244.7,163.5c0,0-3.4-1-5.4-2.4c-4.1-1.1-2.4,2-2.4,2S240.6,165,244.7,163.5L244.7,163.5z"/>
	<path class="st3" d="M266.4,160.1c0,0,0.5,2-1.4,4.6s-2.8,2.7-2.8,2.5c-0.1-0.2,1.3-3.9,1.1-5.6c-0.2-1.7,2-2.1,2-2.1L266.4,160.1
		L266.4,160.1z"/>
	<path class="st3" d="M256.5,157.5c0,0,0.8,1.8-1.2,4.3c-2.5,3-5.7,3.9-5.7,3.6c-0.1-0.2,3.7-5.2,3.7-6.8c0-1.4,2.2-1.7,2.2-1.7
		L256.5,157.5L256.5,157.5z"/>
	<path class="st1" d="M262.9,161.1c0.3-1.2,0.7-3.3-0.8-5.4c-1.5-2.1-1.5-2.5-1.2-2.7c0.3-0.2,1.7,1.1,3.3,3.3
		c1.7,2.2,2.8,2.9,2.2,4.1c0,0-2.4-1.5-3.1,1.8C263.4,162.2,262.5,162.6,262.9,161.1L262.9,161.1z"/>
	<path class="st1" d="M256.6,157.6c0,0,0.3-0.7-0.2-1.9s-1.6-4.3-2.7-5.9c-1.1-1.6-2.7-1.7-4.8-1.7c-2.1,0-7.6,0-14.8-0.2
		c-7.2-0.2-12.9,0.2-16.9,0c5.8,1.5,13.4,2,17,2.6c-0.7,2.9-1.7,4.4-2,7.4c-0.3,3,0.3,3.6,1.8,4.6c1.6,1,3.5,1.6,3.8,1
		c-0.6-0.3-0.7-0.8,0-1.7c0.7-0.9,1.6-0.9,1.7-0.5c0.3-0.8-0.4-3.7-3.3-3.9c0.3-0.7,1.5-0.5,2.2-1.5c0.6-1,2.6-2.6,3.3-3.1
		c0.6-0.4,2.1-1.3,3.7-0.5c1.6,0.7,1.8,0.8,2.7,1c0.8,0.2,1.1,0.9,1.7,0.9c0.6,0,1.9-1.1,1.9-1.1s-1.1,2.1-1.1,4
		C250.3,159,255.2,156.7,256.6,157.6L256.6,157.6z"/>
	<path class="st0" d="M245.6,111.6"/>
	<path class="st0" d="M144.5,129.5c-0.2-0.1-26.4-1.1-48.5-8.7c0,0-1.7,15.6,22,13.9l-28.4,2.7c0,0,6.2,9.9,32.4,5l-15.8,4.2
		c0,0,9.9,6.6,24.5-0.3l-13.4,5.6c0,0,6.8,4.3,16.9-1.8c10.1-6.1,21.7-6.6,26.4-5.3c4.8,1.3,16.5-10.7,15.7-11.2
		c-0.7-0.4-32.4-3.6-32.4-3.6"/>
	<path class="st0" d="M200.3,119.6c-0.7,0.3-9.4,5.6-21.8,9.7c-12.4,4.1-12.4,4.1-12.4,4.1s-5.8,3.2-5.2,4.8s0.8,2.9,2.3,3.9
		c1.5,1-0.7,1.5,3,2.1s1.9,1,6.9,1c5,0,9.5,0.1,9.5,0.1s5.3-1.4,5.5-2.2"/>
	<path class="st0" d="M227.5,146.7c0,0-10.5,9.5-37.6,6.3s-28.8-10.7-42-8.1c-13.2,2.6,8-8.4,8-8.4l31.9-2.5"/>
	<path class="st0" d="M144.9,125.9c0,0,13-3.3,20.6-7.6c7.7-4.4,21.4-7.1,25.8-2.7c4.4,4.4-1.2,18.3-1.2,18.3s-7.6,3.2-12.1,3.7"/>
	<path class="st0" d="M145,126.7c0,0-20.4,2.3-49-5.9c0,0.6,8.3,7.8,9.6,8.3c1.3,0.6,16.4,4.4,21.4,5.7c5,1.4,3.9,2.4,9.2,2.9
		c5.3,0.5,12.7,1.9,15.6-0.2c2.9-2.1,5.7-6.3,5.2-6.3"/>
	<path class="st1" d="M99.9,124.4c0,0,21.2,6.3,37.2,4.2C137.1,128.6,116.4,136,99.9,124.4z"/>
	<path class="st1" d="M112.6,95.7c0,0,30.9,8.7,44.6,17.3c0,0-20.6-7-28.9-7.2"/>
	<path class="st1" d="M88.6,70.1c0,0,36.2,10.1,58.7,28.4c0,0-14.9-9.3-41.3-16.8"/>
	<path class="st1" d="M263,107.2c0.5,1.3,2.6,4.8,1.5,4.9c-1.1,0.1-1.9,0.6-3.4,0.1s-3.2-0.8-3.5-0.9c-0.3-0.1,0.2-1.3,0.2-1.3"/>
	<g>
		<path class="st0" d="M237.7,163.4c0,0-0.5-0.2-0.4-0.8c0.1-0.6,0.7-1.2,0.7-1.2s0.9-0.6,1.4-0.3s0.2-0.8,0.2-0.8
			c0,0-1-0.1-2.1,0.7c-1,0.8-1.3,2.7,0.3,3.1"/>
		<path class="st0" d="M239.9,160.4c0,0-0.1-0.9-1-0.7c-1,0.2-4,1.9-2.3,4.6c1.7,2.7,0.7,0.2,0.7,0.1s-0.5-1.2-0.1-2
			c0.4-0.9,2-1.6,2.1-1.6"/>
	</g>
	<g>
		<path class="st0" d="M253.2,158.7c0,0-0.1-0.6,0.6-0.9s1.7-0.3,1.7-0.3s1.2,0.3,1.2,1c-0.1,0.7,1-0.5,1-0.5c0-0.1-0.6-0.9-2.1-1.2
			s-3.7,1.1-3.2,2.8"/>
		<path class="st0" d="M257.8,158.2c0,0,1-0.8,0.2-1.5c-0.8-0.7-4.6-2-6.4,1.6c-1.8,3.6,0.3,0.7,0.4,0.6s0.9-1.4,2.1-1.7
			c1.2-0.3,2.9,0.4,3,0.5"/>
	</g>
	<path class="st3" d="M261.6,158.9c0,0,0.5,2-1.4,4.6c-1.8,2.6-3.9,3.4-3.9,3.2c-0.1-0.2,2.4-4.6,2.2-6.3c-0.2-1.7,2-2.1,2-2.1
		L261.6,158.9L261.6,158.9z"/>
	<path class="st1" d="M257.9,159.8c0.3-1.3,0.5-2.4-0.3-4.7c-0.8-2.3-2.3-4.1-1.6-4.5c0.8-0.4,3,2.2,4.3,4.5
		c1.9,3.1,1.3,4.3,1.3,4.3s-2.4-1.9-3.1,1.4C258.6,160.7,257.7,160.8,257.9,159.8L257.9,159.8z"/>
	<path class="st0" d="M257.8,159.4c0,0-0.5,0.3-0.4,0.7c0,0.3,0.4,0.7,0.5,0.8c0.1,0.1,0.6,0,0.6,0s0.4-1.5,1.2-1.8
		c0.7-0.2,1.9,0.2,2.3,0.9c0.4,0.7,0.2-2.2,0.1-2.2c-0.1,0-1.9-1.7-4.4,0.2"/>
	<path class="st0" d="M263.4,162.2c-0.1,0,0.4-1.4,1.2-1.8c0.8-0.4,2,0.1,2.3,0.4c0.3,0.3,0.8-1.5,0.8-1.5s-0.5-0.9-1-0.9
		c-0.5,0-3.5,1.3-3.5,1.3s-0.6,0.3-0.9,0.8c-0.3,0.5-0.3-0.2-0.3,1.1c0,1.2,0.2,1.8,0.2,2"/>
</g>
<path class="st0" d="M348.3,157.4l-2.1,6.3l-2.4-6.3l-23.6,0.2l-2.4,7.2c-3.3-4.3-9.2-8.8-19.3-8.7c-5.6,0-11,1.4-16.3,4.1l0.8-2.5
	l-51.5,0.3l-0.9,2.8c-3.5-2.5-8.2-4.3-14.7-4.3c-6.9,0-13.7,2.2-20.1,6.3l1.5-4.7l-28.4,0.1l-2.1,6.3l-2.4-6.3l-14.2,0.1l0,0
	l-28.4,0.1l-10,30.6l-3.4,0l10-30.6l-28.3,0.1l-10,30.6l-3.4,0l10-30.6l-18.7,0.1l-9.6,0l-37,0.2L2.5,217.3l37-0.2l9.7,0l22-0.1
	l10.7-0.1l21-0.1l10.8-0.1l8.2,0l9.4,0l18.9-0.1l2.1-6.3l3.2,8.7l5.6-2.4l17.2-0.1l2.4-7.4c3.3,4.3,9.2,9.1,19.7,9.1
	c8,0,15.8-2.9,23.3-8.5c1.3-1,2.5-2,3.6-3l-3.2,9.7l28.3-0.1l6.5-19.7c0.4,4.9,2,8.6,3.8,11.3l0.1,0.1c3.1,4.5,9.2,10,20.3,9.9
	c6.7,0,13.2-2,19.5-5.9l-1.3,4.1l28.3-0.1l2.1-6.3l3.2,8.7l5.6-2.4l17.2-0.1l19.1-58.3L348.3,157.4z M294.1,183.8c0.2,0,0.3,0,0.4,0
	c0,0.2-0.1,0.4-0.2,0.9c-0.5,1.4-1.4,2.6-2.9,3.7c-1.9,1.4-3.1,1.6-3.9,1.6c-0.1,0-0.2,0-0.3,0c0-0.2,0.1-0.5,0.2-0.9
	c0.5-1.4,1.4-2.6,2.8-3.7C292,184,293.3,183.8,294.1,183.8z"/>
<path class="st1" d="M333.8,220.5l-2-5.5l-0.8,2.6l-32.2,0.2l0.7-2.1c-5.3,2.6-10.8,3.9-16.3,3.9c-11.9,0.1-18.4-5.8-21.8-10.7
	l-0.1-0.1c-1.1-1.7-2-3.4-2.7-5.3l-4.8,14.5l-32.2,0.2l2-6.1c-7.4,5.2-15.2,7.9-23.1,8c-9.2,0-15.2-3.5-18.9-7.2l-1.8,5.6l-18.1,0.1
	l-7,3l-2-5.5l-0.8,2.6L0,219.2l20.3-62l132.7-0.7l0,0l12.9-0.1l1,2.6l0.8-2.6l32.3-0.2l-0.8,2.6c5.5-2.8,11.1-4.2,16.9-4.2
	c5.2,0,9.8,1.1,13.7,3.3l0.6-1.8l55.4-0.3l-0.3,1c4.3-1.7,8.8-2.6,13.3-2.6c9,0,14.9,3.4,18.6,7l1.8-5.4l26.2-0.3l1,2.6l0.8-2.6
	l32.3-0.2l-20.3,62l-18.1,0.1L333.8,220.5z M331.5,203.7l4.3,11.8l4.1-1.8l16.2-0.1l17.9-54.6l-24.5,0.1l-3.3,10l-3.7-10l-21,0.2
	l-3,9.2l-2.1-2.7c-4.2-5.3-10.2-8-17.9-8c-5.2,0-10.5,1.3-15.5,3.9l-4,2l1.4-4.4l-47.6,0.2l-1.3,3.9l-2-1.5c-3.7-2.6-8.3-4-13.6-3.9
	c-6.5,0-13,2.1-19.1,6l-4.4,2.8l2.4-7.2l-24.5,0.1l-3.3,10l-3.7-10l-15.5,0.1l0-0.1l-24.5,0.1l-10,30.6l-7.2,0l10-30.6l-24.4,0.1
	l-10,30.6l-7.3,0l10-30.6L23,160.8L5.1,215.5l143.9-0.7l3.3-10.1l4.3,11.8l4.1-1.8l16.2-0.1l3.1-9.5l2.1,2.8
	c2.9,3.8,8.4,8.4,18.2,8.3c7.6,0,15-2.8,22.2-8.1c1.2-0.9,2.4-1.9,3.4-2.9l5.2-4.9l-4.6,14l24.4-0.1l9-27.4l0.7,9.3
	c0.3,3.8,1.5,7.3,3.5,10.4l0.1,0.1c2.9,4.2,8.4,9.1,18.7,9.1c6.3,0,12.6-1.9,18.6-5.7l4.3-2.7l-2.1,6.5l24.4-0.1L331.5,203.7z
	 M287.5,191.8c-0.2,0-0.3,0-0.4,0l-1.9-0.1l0.2-1.9c0-0.4,0.1-0.8,0.3-1.2c0.6-1.8,1.7-3.3,3.4-4.6c2.3-1.7,4-2,5-2
	c0.2,0,0.4,0,0.6,0l1.8,0.2l-0.2,1.8c0,0.4-0.1,0.8-0.3,1.3c-0.6,1.8-1.7,3.3-3.5,4.6C290.2,191.6,288.5,191.8,287.5,191.8z"/>
<rect x="281.6" y="176.7" transform="matrix(1 -4.976007e-03 4.976007e-03 1 -0.9286 1.4518)" class="st0" width="19.3" height="21.2"/>
<g>
	<path class="st3" d="M36.5,178l-1.4,4.2l17.9-0.1l-3.7,11.2l-17.9,0.1l-1.4,4.4l18.3-0.1l-4.1,12.6l-32.1,0.2l14.6-44.5l32.1-0.2
		l-4,12.2L36.5,178z"/>
	<path class="st3" d="M77,210l-27.9,0.1l14.6-44.5l13.8-0.1l-10,30.6l14.1-0.1L77,210z"/>
	<path class="st3" d="M108.7,209.9L80.8,210l14.6-44.5l13.8-0.1l-10,30.6l14.1-0.1L108.7,209.9z"/>
	<path class="st3" d="M126.3,209.8l-13.8,0.1l14.6-44.5l13.8-0.1L126.3,209.8z"/>
	<path class="st3" d="M173.3,209.6l-13.6,0.1l-0.1,0.1l-7.5-20.5l-6.7,20.5l-13.8,0.1l14.6-44.4l13.8-0.1l7.6,20.2l6.6-20.3
		l13.8-0.1L173.3,209.6z"/>
	<path class="st3" d="M231.8,186.6c-0.1,0.2-0.1,0.4-0.2,0.6c-2.1,6.5-5.9,12.2-12.1,16.9c-6.2,4.6-12.5,7-19.1,7.1
		c-6.5,0-11.4-2.3-14.5-6.9c-3.1-4.7-3.6-10.3-1.5-16.8c2.2-6.6,6.3-12.3,12.5-16.9c6.2-4.7,12.6-7.1,19.1-7.1
		c6.6,0,11.4,2.3,14.5,7l-13.3,9.4c-1.3-1.9-3-2.5-5.8-2.5c-2.8,0-5.4,1-8.1,3c-2.5,1.9-4.3,4.3-5.2,7.1c-0.9,2.8-0.7,5.1,0.5,7.1
		c1.4,1.9,3.4,2.9,6.2,2.8c2.8,0,5.4-1,8-2.9c0.7-0.5,1.3-1,1.9-1.6l-7.7,0l2.9-8.8l22.7-0.1C232.7,183.9,232,186,231.8,186.6z"/>
	<path class="st3" d="M269.1,178.3l-11.6,0.1l-10.1,30.8l-13.8,0.1l10.1-30.8l-11.6,0.1l4.5-13.7l36.9-0.2L269.1,178.3z"/>
	<path class="st3" d="M302.1,203.7c-6.2,4.6-12.5,7-19.1,7.1c-6.6,0-11.4-2.3-14.5-6.9c-3.1-4.7-3.6-10.3-1.5-16.8
		c2.2-6.6,6.4-12.3,12.5-16.9c6.2-4.7,12.5-7.1,19.1-7.1c6.6,0,11.4,2.3,14.5,7c3.2,4.6,3.7,10.2,1.5,16.8
		C312.5,193.3,308.3,199,302.1,203.7z M300.2,179.8c-1.3-2-3.3-2.9-6.1-2.9c-2.8,0-5.4,1-8.1,3c-2.6,1.9-4.3,4.3-5.2,7.1
		c-0.9,2.8-0.7,5.1,0.5,7.1c1.4,1.9,3.3,2.9,6.2,2.8c2.8,0,5.4-1,8-2.9c2.7-2,4.4-4.4,5.3-7.1C301.8,184.1,301.6,181.7,300.2,179.8z
		"/>
	<path class="st3" d="M352.6,208.7l-13.6,0.1l-0.1,0.1l-7.5-20.5l-6.7,20.5l-13.8,0.1l14.6-44.4l13.8-0.1l7.6,20.2l6.6-20.3
		l13.8-0.1L352.6,208.7z"/>
</g>
<path class="st1" d="M265.4,162.7c-0.3-1-1.5-2.7-3.3-5.2c-0.6-0.8-1.2-1.5-1.6-2.1c-1.3-1.9-3.4-2.3-4.4-2.5
	c-1.3-1.5-3.2-1.6-4.2-1.6c-1.4-1.9-5.1-1.9-5.9-1.9l-23.4-0.5l-4.9,2.4c-1.5,0-3.1,0-4.5,0l-0.3,2c0.2,0,0.4,0.1,0.6,0.1l-9.4,4.7
	l4.4-0.1c0.7,0,9.9,0.6,16.6,1.1c-0.4,2-0.9,5.8,0.9,8.2c2.3,3,7.1,3.5,7.7,3.5c3.7,0.7,6.6,0,8.5-0.8c-0.7,0.8-1.3,1.5-1.7,1.8
	l-1.9,1.8l2.6-0.1c3.5-0.1,6-1,7.7-1.8c-0.8,1.5-1.5,2.2-1.5,2.2l-2.6,2.4l3.5-0.6c0.6-0.1,1.2-0.2,1.7-0.4l-2.5,1.2l4.4,0
	c0.1,0,0.1,0,0.2,0c3.6,0,6.6-1,8.9-2.9c0.8-0.6,1.7-1.6,2.6-2.9c1.5-2.2,1.9-4.2,1.9-5.5C265.5,164.2,265.5,163.2,265.4,162.7z
	 M244.2,166.5c-1.4,0.2-4.1-1.3-5.8-2.4c-0.2-1-0.8-2-1.3-2.7c0.4-0.4,1.1-0.9,1.8-1.5c0.6-0.5,1.1-0.6,1.2-0.6c0,0,0,0,0,0l3.5,1.6
	c-0.3,2.1,0.8,3.6,1.8,4.5c-0.1,0.4-0.3,0.8-0.5,1.2L244.2,166.5z"/>
<g>
	<g>
		<path class="st0" d="M268.4,159c-0.3-1.3-3.4-5-4.8-7c-1.4-2-4.1-2.1-4.1-2.1c-1.4-2-4.3-1.5-4.3-1.5c-0.6-2-5.3-2-5.3-2
			l-23.2-0.5l-4.9,2.4c-1.8,0-3.4,0-4.8,0c1.1,0.3,2.2,0.5,3.4,0.7l-8,4c1,0,17.9,1.2,17.9,1.2s-1.8,5.7,0.4,8.5
			c2.2,2.8,7,3.1,7,3.1c6.9,1.3,10.5-2.4,10.5-2.4c-2.5,0.3-6.8-2.8-6.8-2.8c-0.1-1.5-1.8-3.4-1.8-3.4s1-0.9,2.6-2.2
			c1.6-1.3,2.3-0.7,2.3-0.7l4.2,1.9c-0.9,3.1,1.8,4.6,1.8,4.6c-0.7,3.2-5.3,7.7-5.3,7.7c7.1-0.3,10-3.5,10-3.5
			c-0.1,0.2-0.1,0.3-0.2,0.5c-0.2,0.4-0.4,0.8-0.4,1.1c-1.2,2.9-2.5,4-2.5,4c2.5-0.5,4.4-1.3,5.8-2.1c0.9-0.4,1.8-1.1,2.7-2
			c-0.6,3-4.7,4.9-4.7,4.9c3.8,0,6.6-1.1,8.5-2.7c0.7-0.6,1.5-1.4,2.4-2.7c1.4-2.1,1.7-3.9,1.7-5C268.5,160.1,268.5,159.2,268.4,159
			z"/>
		<path class="st0" d="M256,172.5c-0.1,0-0.1,0-0.2,0l-4.4,0l2.5-1.2c-0.6,0.2-1.1,0.3-1.7,0.4l-3.5,0.6l2.6-2.4
			c0,0,0.7-0.7,1.5-2.2c-1.7,0.8-4.3,1.6-7.7,1.8l-2.6,0.1l1.9-1.8c0.4-0.4,1-1.1,1.7-1.8c-1.9,0.8-4.7,1.5-8.5,0.8
			c-0.6,0-5.4-0.5-7.7-3.5c-1.8-2.4-1.3-6.2-0.9-8.2c-6.7-0.5-15.9-1.1-16.6-1.1l-4.4,0.1l9.4-4.7c-0.2,0-0.4-0.1-0.6-0.1l0.3-2
			c1.3,0.1,2.9,0.1,4.5,0l4.9-2.4l23.4,0.5c0.8,0,4.5,0.1,5.9,1.9c1.1,0,2.9,0.1,4.2,1.6c1,0.1,3.1,0.6,4.4,2.5
			c0.4,0.6,1,1.4,1.6,2.1c1.9,2.5,3.1,4.2,3.3,5.2l0,0c0.1,0.5,0.1,1.5-0.1,2.5c0,1.3-0.4,3.3-1.9,5.5c-0.9,1.3-1.8,2.3-2.6,2.9
			C262.6,171.5,259.6,172.5,256,172.5z M262.1,163.5l-0.6,3.3c-0.3,1.3-1,2.4-1.9,3.3c1.6-0.4,3-1.1,4.1-2c0.7-0.5,1.4-1.3,2.2-2.5
			c1.3-1.8,1.5-3.4,1.6-4.4l0-0.1c0.1-1,0.1-1.6,0.1-1.8c-0.2-0.7-1.9-3-3-4.5c-0.6-0.8-1.2-1.6-1.6-2.2c-1.1-1.6-3.3-1.7-3.3-1.7
			l-0.5,0l-0.3-0.4c-1-1.5-3.3-1.1-3.3-1.1l-0.9,0.2l-0.3-0.9c-0.2-0.8-2.5-1.3-4.4-1.3l-23-0.5l-10.7,5.3c4.9,0.3,13,0.9,14.2,1
			l1.3,0.1l-0.4,1.2c-0.4,1.4-1.3,5.6,0.2,7.6c1.6,2,5.1,2.7,6.3,2.7l0.1,0c3.5,0.6,6.1-0.1,7.7-0.8c-2.2-0.8-4.4-2.3-4.8-2.5
			l-0.4-0.3l0-0.5c0-0.9-1-2.2-1.5-2.7l-0.7-0.7l0.7-0.7c0,0,1-1,2.6-2.3c1.8-1.5,3-1.1,3.4-0.8l4.9,2.2l-0.3,0.8
			c-0.7,2.2,1.1,3.4,1.3,3.5l0.6,0.4l-0.2,0.7c-0.5,2.1-2.3,4.5-3.8,6.2c4.7-0.8,6.7-2.9,6.7-2.9l3.1-3.5l-1.4,4.5
			c-0.1,0.2-0.1,0.3-0.2,0.5l-0.1,0.1c-0.2,0.4-0.3,0.7-0.4,0.9l-0.1,0.2c-0.3,0.8-0.6,1.4-0.9,2c1-0.3,1.9-0.8,2.8-1.3
			c0.8-0.4,1.7-1,2.5-1.8L262.1,163.5z M242.4,160.1c1.7,1.1,4.4,2.5,5.8,2.4l0.6-0.1c0.2-0.4,0.4-0.8,0.5-1.2
			c-1-0.8-2.1-2.4-1.8-4.5l-3.5-1.6c0,0,0,0,0,0c-0.1,0-0.6,0.1-1.2,0.6c-0.8,0.6-1.4,1.1-1.8,1.5C241.5,158,242.2,159,242.4,160.1z
			"/>
	</g>
	<path class="st0" d="M226.7,145.8l23.2,0.5c0,0,4.8,0,5.3,2c0,0,2.9-0.5,4.3,1.5c0,0,2.7,0.1,4.1,2.1c1.4,2,4.4,5.7,4.8,7
		c0.3,1.3-0.5,12.6-12.6,12.5c0,0,4.1-2,4.7-4.9c-0.1,0-2.8,3.1-8.4,4.1c0,0,1.8-1.6,3.1-5.6c0,0-2.9,3.2-10,3.5
		c0,0,4.6-4.5,5.3-7.7c0,0-2.7-1.5-1.8-4.6l-4.2-1.9c0,0-0.7-0.5-2.3,0.7c-1.6,1.3-2.6,2.2-2.6,2.2s1.7,1.8,1.8,3.4
		c0,0,4.4,3.1,6.8,2.8c0,0-3.6,3.6-10.5,2.4c0,0-4.8-0.3-7-3.1c-2.2-2.8-0.4-8.5-0.4-8.5s-17-1.3-17.9-1.2"/>
	<g>
		<path class="st0" d="M266.4,160.5c0,0,0.5,2-1.4,4.6c-1.8,2.6-2.8,2.7-2.8,2.5c-0.1-0.2,1.3-3.9,1.1-5.6c-0.2-1.7,2-2.1,2-2.1
			L266.4,160.5L266.4,160.5z"/>
		<path class="st0" d="M262.2,169.5C262.2,169.5,262.2,169.5,262.2,169.5c-0.8-0.1-1.4-0.5-1.7-1.2c-0.3-0.7-0.2-1.1,0.2-2.3
			c0.3-0.9,0.9-3.1,0.8-3.9c-0.2-1.7,1-3.7,3.6-4.1c0.4-0.1,0.8,0,1.2,0.2l1,0.6c0.5,0.3,0.8,0.7,0.9,1.2c0.1,0.3,0.6,2.9-1.6,6.1
			C264.9,168.5,263.6,169.6,262.2,169.5z"/>
	</g>
	<g>
		<path class="st0" d="M261.6,159.2c0,0,0.5,2-1.4,4.6c-1.8,2.6-3.9,3.4-3.9,3.2c-0.1-0.2,2.4-4.6,2.2-6.3c-0.2-1.7,2-2.1,2-2.1
			L261.6,159.2L261.6,159.2z"/>
		<path class="st0" d="M256.3,168.9C256.3,168.9,256.2,168.9,256.3,168.9c-0.8-0.1-1.4-0.5-1.7-1.2c-0.4-0.8-0.1-1.4,0.5-2.6
			c1.1-2.3,1.6-3.8,1.6-4.3c-0.2-2.3,1.6-3.8,3.6-4.1c0.4-0.1,0.8,0,1.2,0.2l1,0.6c0.5,0.3,0.8,0.7,0.9,1.2c0.1,0.3,0.6,2.9-1.6,6.1
			C260.2,167.3,257.8,169,256.3,168.9z"/>
	</g>
	<path class="st3" d="M244.7,163.8c0,0-3.4-1-5.4-2.4c-4.1-1.1-2.4,2-2.4,2S240.6,165.4,244.7,163.8L244.7,163.8z"/>
	<path class="st3" d="M266.4,160.5c0,0,0.5,2-1.4,4.6c-1.8,2.6-2.8,2.7-2.8,2.5c-0.1-0.2,1.3-3.9,1.1-5.6c-0.2-1.7,2-2.1,2-2.1
		L266.4,160.5L266.4,160.5z"/>
	<path class="st3" d="M256.5,157.8c0,0,0.8,1.8-1.2,4.3c-2.5,3-5.7,3.9-5.7,3.6c-0.1-0.2,3.7-5.2,3.7-6.8c0-1.4,2.2-1.7,2.2-1.7
		L256.5,157.8L256.5,157.8z"/>
	<path class="st1" d="M262.9,161.4c0.3-1.2,0.7-3.3-0.8-5.4c-1.5-2.1-1.5-2.5-1.2-2.7c0.3-0.2,1.7,1.1,3.3,3.3
		c1.7,2.2,2.8,2.9,2.2,4.1c0,0-2.4-1.5-3.1,1.8C263.4,162.5,262.5,162.9,262.9,161.4L262.9,161.4z"/>
	<path class="st1" d="M256.6,158c0,0,0.3-0.7-0.2-1.9c-0.5-1.2-1.6-4.3-2.7-5.9c-1.1-1.6-2.7-1.7-4.8-1.7c-2.1,0-7.6,0-14.8-0.2
		c-7.2-0.2-12.9,0.2-16.9,0c5.8,1.5,13.4,2,17,2.6c-0.7,2.9-1.7,4.4-2,7.4c-0.3,3,0.3,3.6,1.8,4.6c1.6,1,3.5,1.6,3.8,1
		c-0.6-0.3-0.7-0.8,0-1.7c0.7-0.9,1.6-0.9,1.7-0.5c0.3-0.8-0.4-3.7-3.3-3.9c0.3-0.7,1.5-0.5,2.2-1.5c0.6-1,2.6-2.6,3.3-3.1
		c0.6-0.4,2.1-1.3,3.7-0.5c1.6,0.7,1.8,0.8,2.7,1c0.8,0.2,1.1,0.9,1.7,0.9c0.6,0,1.9-1.1,1.9-1.1s-1.1,2.1-1.1,4
		C250.3,159.3,255.2,157,256.6,158L256.6,158z"/>
	<g>
		<path class="st0" d="M237.7,163.8c0,0-0.5-0.2-0.4-0.8c0.1-0.6,0.7-1.2,0.7-1.2s0.9-0.6,1.4-0.3c0.5,0.3,0.2-0.8,0.2-0.8
			c0,0-1-0.1-2.1,0.7c-1,0.8-1.3,2.7,0.3,3.1"/>
		<path class="st0" d="M239.9,160.8c0,0-0.1-0.9-1-0.7c-1,0.2-4,1.9-2.3,4.6c1.7,2.7,0.7,0.2,0.7,0.1s-0.5-1.2-0.1-2s2-1.6,2.1-1.6"
			/>
	</g>
	<g>
		<path class="st0" d="M253.2,159.1c0,0-0.1-0.6,0.6-0.9s1.7-0.3,1.7-0.3s1.2,0.3,1.2,1c-0.1,0.7,1-0.5,1-0.5s-0.6-0.9-2.1-1.2
			c-1.5-0.3-3.7,1.1-3.2,2.8"/>
		<path class="st0" d="M257.8,158.5c0,0,1-0.8,0.2-1.5c-0.8-0.7-4.6-2-6.4,1.6c-1.8,3.6,0.3,0.7,0.4,0.6c0.1-0.1,0.9-1.4,2.1-1.7
			c1.2-0.3,2.9,0.4,3,0.5"/>
	</g>
	<path class="st3" d="M261.6,159.2c0,0,0.5,2-1.4,4.6c-1.8,2.6-3.9,3.4-3.9,3.2c-0.1-0.2,2.4-4.6,2.2-6.3c-0.2-1.7,2-2.1,2-2.1
		L261.6,159.2L261.6,159.2z"/>
	<path class="st1" d="M257.9,160.1c0.3-1.3,0.5-2.4-0.3-4.7c-0.8-2.3-2.3-4.1-1.6-4.5c0.8-0.4,3,2.2,4.3,4.5
		c1.9,3.1,1.3,4.3,1.3,4.3s-2.4-1.9-3.1,1.4C258.6,161,257.7,161.1,257.9,160.1L257.9,160.1z"/>
	<path class="st0" d="M257.8,159.8c0,0-0.5,0.3-0.4,0.7c0,0.3,0.4,0.7,0.5,0.8c0.1,0.1,0.6,0,0.6,0s0.4-1.5,1.2-1.8
		c0.7-0.2,1.9,0.2,2.3,0.9c0.4,0.7,0.2-2.2,0.1-2.2c-0.1,0-1.9-1.7-4.4,0.2"/>
	<path class="st0" d="M263.4,162.5c-0.1,0,0.4-1.4,1.2-1.8c0.8-0.4,2,0.1,2.3,0.4c0.3,0.3,0.8-1.5,0.8-1.5s-0.5-0.9-1-0.9
		c-0.5,0-3.5,1.3-3.5,1.3s-0.6,0.3-0.9,0.8c-0.3,0.5-0.3-0.2-0.3,1.1c0,1.2,0.2,1.8,0.2,2"/>
</g>
</svg>
